<svg id="icon" xmlns="http://www.w3.org/2000/svg" xmlns:xlink="http://www.w3.org/1999/xlink" width="19.31" height="17" viewBox="0 0 19.31 17">
  <defs>
    <clipPath id="clip-path">
      <rect id="사각형_119" data-name="사각형 119" width="19.31" height="17" transform="translate(0 0)" fill="none"/>
    </clipPath>
  </defs>
  <g id="그룹_37" data-name="그룹 37" transform="translate(0 0)" clip-path="url(#clip-path)">
    <path id="패스_2" data-name="패스 2" d="M8.751.522.142,15.434A1.044,1.044,0,0,0,1.046,17H18.265a1.044,1.044,0,0,0,.9-1.566L10.559.522a1.044,1.044,0,0,0-1.808,0" transform="translate(0 0)" fill="#ffda3e"/>
    <path id="패스_3" data-name="패스 3" d="M36.885,35.4a.993.993,0,0,1-.741-.292,1.006,1.006,0,0,1,0-1.407,1.087,1.087,0,0,1,1.483,0,1.006,1.006,0,0,1,0,1.407.993.993,0,0,1-.741.292m.931-7.817-.574,5.251h-.7l-.563-5.218-.032-.79h1.895Z" transform="translate(-27.23 -20.375)"/>
  </g>
</svg>
