<svg width="170" height="49" viewBox="0 0 170 49" fill="none" xmlns="http://www.w3.org/2000/svg">
<g clip-path="url(#clip0_24_98)">
<path d="M63.9943 42.0452H57.2894V31.9542C57.2894 30.9264 56.8667 30.4125 56.0166 30.4125C55.1665 30.4125 54.763 30.9264 54.763 31.9542V42.0452H48.0581V32.0791C48.0581 29.7497 48.8266 27.7853 50.3683 26.1907C51.9101 24.5961 53.7976 23.7988 56.031 23.7988C58.5861 23.7988 60.637 24.7258 62.1787 26.5797C63.3843 28.0254 63.9894 30.0378 63.9894 32.6218V42.05L63.9943 42.0452Z" fill="white"/>
<path d="M92.3555 17.5741V32.2182C92.3555 34.5957 93.2105 35.7868 94.9203 35.7868C95.6504 35.7868 96.2699 35.5371 96.7742 35.0423C97.2834 34.5476 97.5379 33.9473 97.5379 33.2412C97.5379 32.5352 97.2978 31.9012 96.8223 31.4017C96.342 30.907 95.756 30.6573 95.0644 30.6573C94.5745 30.6573 94.0125 30.8734 93.3786 31.3009V23.9139C94.1662 23.8419 94.7666 23.8083 95.1701 23.8083C97.6916 23.8083 99.8529 24.716 101.649 26.5315C103.446 28.3471 104.348 30.5372 104.348 33.0924C104.348 35.6475 103.436 37.9145 101.606 39.706C99.7761 41.4975 97.5283 42.3956 94.8675 42.3956C93.5275 42.3956 92.2211 42.1027 90.9483 41.5167C89.6755 40.9308 88.6285 40.1431 87.8023 39.1489C86.3663 37.4294 85.6506 35.2008 85.6506 32.4632V17.5645H92.3555V17.5741Z" fill="white"/>
<path d="M106.188 24.4228H112.893V34.5137C112.893 35.532 113.316 36.0363 114.166 36.0363C115.016 36.0363 115.419 35.5272 115.419 34.5137V24.4228H122.124V34.3889C122.124 36.7087 121.356 38.6635 119.814 40.2581C118.272 41.8526 116.385 42.6499 114.151 42.6499C111.606 42.6499 109.555 41.723 108.003 39.869C106.798 38.4233 106.193 36.4157 106.193 33.8461V24.418L106.188 24.4228Z" fill="white"/>
<path d="M131.639 17.5742V42.0452H124.934V17.5742H131.639Z" fill="white"/>
<path d="M144.391 35.3405V42.2759C143.843 42.372 143.339 42.42 142.882 42.42C140.193 42.42 137.955 41.5362 136.158 39.7688C134.367 38.0013 133.469 35.7823 133.469 33.1167C133.469 30.4511 134.372 28.3234 136.182 26.5175C137.993 24.7115 140.193 23.8086 142.786 23.8086C145.678 23.8086 147.959 24.6539 149.626 26.3445C151.292 28.0352 152.128 30.3454 152.128 33.2752V42.0405H145.423V33.7603C145.423 32.8141 145.193 32.0648 144.732 31.5029C144.271 30.941 143.651 30.6624 142.878 30.6624C142.172 30.6624 141.562 30.9217 141.048 31.4309C140.534 31.94 140.279 32.5547 140.279 33.2608C140.279 34.0004 140.515 34.6104 140.981 35.0907C141.446 35.571 142.037 35.8063 142.758 35.8063C143.344 35.8063 143.886 35.6526 144.391 35.3405Z" fill="white"/>
<path d="M156.931 17.5742H169.894L165.898 26.988C167.334 27.9582 168.377 29.0148 169.025 30.1723C169.678 31.325 170 32.6891 170 34.2692C170 36.6227 169.135 38.6111 167.402 40.2297C165.668 41.8483 163.535 42.66 161.004 42.66C159.606 42.66 158.218 42.3958 156.845 41.8723V34.9513C157.882 35.5948 158.785 35.9214 159.554 35.9214C160.389 35.9214 161.091 35.6237 161.662 35.0233C162.229 34.4277 162.512 33.6833 162.512 32.7995C162.512 31.7861 162.09 30.9744 161.239 30.3692C160.389 29.7641 159.256 29.4663 157.834 29.4663L159.645 24.6441H156.936V17.579L156.931 17.5742Z" fill="white"/>
<path d="M78.1484 35.7385L77.865 36.2284C77.4279 36.9873 76.453 37.4195 75.1898 37.4195C73.3983 37.4195 72.2456 36.5886 71.8661 35.0469H83.8063V32.8664C83.8063 26.2527 79.2242 23.8608 74.9256 23.832C72.2456 23.8464 69.9498 24.7494 68.2928 26.4352C66.6406 28.1163 65.776 30.4265 65.7952 33.1065C65.7808 35.8106 66.6309 38.1016 68.2639 39.7346C69.9162 41.3916 72.2648 42.2609 75.0409 42.2609H75.2234C79.5316 42.2609 82.7544 40.2389 83.6429 36.9681L83.9792 35.7337H78.1532L78.1484 35.7385ZM72.0006 30.5081C72.5001 29.4275 73.6144 28.7406 74.9929 28.7406C76.3713 28.7406 77.3991 29.4227 77.7738 30.5081H72.0006Z" fill="white"/>
<path d="M24.4472 24.2456V15.8789H24.4424V24.236V24.2456H24.4472Z" fill="#9D9DFF"/>
<path d="M24.4472 24.2456V15.8789H24.4424V24.236V24.2456H24.4472Z" fill="#9D9DFF"/>
<path d="M24.4471 32.5977V48.4666H8.5686V48.4714H24.4471V32.5977Z" fill="#9D9DFF"/>
<path opacity="0.4" d="M24.4472 32.598V26.6183C24.4472 26.5223 24.4472 26.4262 24.4424 26.335V32.598H24.4472Z" fill="#3E3EFF"/>
<path d="M24.4424 24.2354V32.5925H24.4472V32.5973V24.2354H24.4424Z" fill="#9D9DFF"/>
<path d="M24.3463 24.2452V15.8785H24.3415V0H40.22V48.4713M16.407 18.6786C20.6961 18.6786 24.1878 22.0791 24.3415 26.3297V24.2356L8.46777 0V26.6179C8.46777 22.2328 12.0219 18.6786 16.407 18.6786Z" fill="url(#paint0_linear_24_98)"/>
<path d="M24.3415 26.3298C24.1926 22.0792 20.6961 18.6787 16.407 18.6787C12.0219 18.6787 8.46777 22.2329 8.46777 26.618V48.4713H24.3463V32.6024H24.3415V26.3346V26.3298Z" fill="url(#paint1_linear_24_98)"/>
<path d="M2.17115 35.0563C2.17115 35.0563 2.16154 35.0419 2.15674 35.0371C2.16634 35.0515 2.17115 35.0563 2.17115 35.0563Z" fill="#4940FF"/>
<path d="M49.3839 15.8926C48.7788 15.1721 47.943 14.6534 46.8864 14.346C46.8816 14.346 46.8768 14.3364 46.8864 14.3316C47.626 13.5872 48.3609 12.5641 48.6203 11.2721C49.1006 5.87845 43.5243 6.23867 42.5638 6.33953C42.5397 6.33953 42.5397 6.37795 42.5638 6.38275C47.9286 7.51625 46.8768 10.7726 46.7567 11.104C46.2476 12.9724 44.1823 14.0963 44.1631 14.1107C43.7549 14.3268 43.5628 14.8119 43.7309 15.2538C43.8653 15.614 44.2208 15.8397 44.6002 15.8541C46.1948 15.9166 47.3235 16.32 47.9575 17.0597C48.6058 17.8186 48.5338 18.7119 48.529 18.8032C48.2937 20.1384 46.5118 23.0057 37.3045 27.2899C32.0261 29.749 26.7957 31.4877 26.4595 31.5982C14.7451 34.9218 8.71264 35.3012 5.71561 35.0323C4.94714 34.965 4.33236 34.8498 3.84246 34.7153H3.83286C3.07399 34.5328 -1.54163 33.0823 5.41302 26.6704C5.42263 26.6656 5.41302 26.6512 5.40342 26.656C4.58212 27.1795 -2.53104 31.8623 0.975108 35.2628C0.975108 35.2628 0.984714 35.2676 0.984714 35.2724C0.989517 35.2772 0.999123 35.2868 1.00393 35.2916C1.16723 35.4501 1.36895 35.6086 1.6139 35.7623C2.64173 36.4203 4.41401 36.9487 7.44947 36.9487C11.4167 36.9487 17.5404 36.0505 26.983 33.3705C26.9926 33.3705 27.007 33.3657 27.0166 33.3609C27.0695 33.3416 32.54 31.5405 38.0682 28.971C45.8249 25.364 49.845 22.1316 50.3541 19.0865C50.3541 19.0769 50.3541 19.0721 50.3541 19.0625C50.3637 18.9905 50.5847 17.3142 49.3887 15.883L49.3839 15.8926Z" fill="#3434EA"/>
</g>
<defs>
<linearGradient id="paint0_linear_24_98" x1="14.1208" y1="-2.26699" x2="43.5628" y2="42.6021" gradientUnits="userSpaceOnUse">
<stop offset="0.15" stop-color="#FF8533"/>
<stop offset="0.51" stop-color="#A14BC9"/>
<stop offset="0.87" stop-color="#3434EA"/>
</linearGradient>
<linearGradient id="paint1_linear_24_98" x1="16.407" y1="47.8518" x2="16.407" y2="19.2262" gradientUnits="userSpaceOnUse">
<stop offset="0.15" stop-color="#FF8533"/>
<stop offset="0.51" stop-color="#A14BC9"/>
<stop offset="0.87" stop-color="#3434EA"/>
</linearGradient>
<clipPath id="clip0_24_98">
<rect width="170" height="48.4713" fill="white"/>
</clipPath>
</defs>
</svg>
