<?xml version="1.0" encoding="utf-8"?>
<!-- Generator: Adobe Illustrator 27.3.1, SVG Export Plug-In . SVG Version: 6.00 Build 0)  -->
<svg version="1.1" id="레이어_1" xmlns="http://www.w3.org/2000/svg" xmlns:xlink="http://www.w3.org/1999/xlink" x="0px"
	 y="0px" viewBox="0 0 100 100" style="enable-background:new 0 0 100 100;" xml:space="preserve">
<style type="text/css">
	.st0{fill-rule:evenodd;clip-rule:evenodd;fill:#F0B90B;}
	.st1{fill:#FFFFFF;}
</style>
<g>
	<path class="st0" d="M50,0c27.6,0,50,22.4,50,50s-22.4,50-50,50S0,77.6,0,50S22.4,0,50,0L50,0z"/>
	<path class="st1" d="M27.5,50l0,13.2l11.2,6.6v7.7L20.9,67.1v-21L27.5,50L27.5,50z M27.5,36.8v7.7l-6.5-3.9v-7.7l6.5-3.9l6.6,3.9
		L27.5,36.8L27.5,36.8z M43.4,32.9L50,29l6.6,3.9L50,36.8L43.4,32.9L43.4,32.9z"/>
	<path class="st1" d="M32.2,60.5v-7.7l6.5,3.9v7.7L32.2,60.5L32.2,60.5z M43.4,72.6l6.5,3.9l6.6-3.9v7.7L50,84.2l-6.5-3.9V72.6
		L43.4,72.6z M65.9,32.9l6.5-3.9l6.6,3.9v7.7l-6.6,3.9v-7.7L65.9,32.9L65.9,32.9L65.9,32.9z M72.5,63.2l0-13.2l6.5-3.9v21L61.3,77.6
		v-7.7L72.5,63.2L72.5,63.2L72.5,63.2z"/>
	<polygon class="st1" points="67.8,60.5 61.3,64.3 61.3,56.6 67.8,52.7 	"/>
	<path class="st1" d="M67.8,39.5l0,7.7l-11.3,6.6v13.3L50,71l-6.5-3.8V53.9l-11.3-6.6v-7.7l6.6-3.9L50,42.3l11.3-6.6L67.8,39.5
		L67.8,39.5L67.8,39.5z M32.2,26.3L50,15.8l17.8,10.5l-6.5,3.9L50,23.5l-11.2,6.6L32.2,26.3L32.2,26.3z"/>
</g>
</svg>
