<svg width="20" height="11" viewBox="0 0 20 11" fill="none" xmlns="http://www.w3.org/2000/svg">
<g clip-path="url(#clip0_18_831)">
<path d="M14.8998 0.799805C13.837 0.799805 12.6733 1.40287 11.4457 2.59241C10.8665 3.15121 10.3564 3.75981 9.98438 4.24115C9.98438 4.24115 10.5795 4.95488 11.2332 5.72392C11.5892 5.25917 12.094 4.62845 12.6839 4.05858C13.7733 2.99629 14.4853 2.78052 14.8945 2.78052C16.425 2.78052 17.6684 4.11944 17.6684 5.77372C17.6684 7.4114 16.425 8.75032 14.8945 8.76692C14.8201 8.76692 14.7351 8.75585 14.6288 8.73372C15.0752 8.9495 15.5588 9.10441 16.0105 9.10441C18.8163 9.10441 19.3689 7.08497 19.4008 6.94112C19.4805 6.57043 19.5283 6.18314 19.5283 5.78478C19.523 3.03502 17.4506 0.799805 14.8998 0.799805Z" fill="url(#paint0_linear_18_831)"/>
<path d="M5.0953 10.748C6.1581 10.748 7.32187 10.1449 8.54941 8.95538C9.12863 8.39657 9.63878 7.78798 10.0108 7.30663C10.0108 7.30663 9.41559 6.59291 8.76197 5.82386C8.40593 6.28861 7.9011 6.91934 7.31124 7.48921C6.22187 8.54043 5.50448 8.76727 5.10061 8.76727C3.57018 8.76727 2.3267 7.42835 2.3267 5.77407C2.3267 4.13638 3.57018 2.79746 5.10061 2.78087C5.17501 2.78087 5.26003 2.79193 5.36631 2.81406C4.91994 2.59829 4.43636 2.44337 3.98467 2.44337C1.17887 2.43784 0.626217 4.45728 0.594333 4.60666C0.514623 4.97736 0.466797 5.36465 0.466797 5.763C0.466797 8.51276 2.53926 10.748 5.0953 10.748Z" fill="url(#paint1_linear_18_831)"/>
<path fill-rule="evenodd" clip-rule="evenodd" d="M7.23161 4.10284C6.9234 3.79301 5.42484 2.52601 3.99006 2.48175C1.42871 2.41536 0.679434 4.35181 0.610352 4.60078C1.10455 2.43196 2.93257 0.81087 5.10069 0.799805C6.87026 0.799805 8.66108 2.609 9.98427 4.24116L9.98958 4.23562C9.98958 4.23562 10.5847 4.94934 11.2384 5.71839C11.2384 5.71839 11.9823 6.63129 12.7688 7.43353C13.077 7.74337 14.5703 8.99376 16.005 9.03802C18.6355 9.11548 19.3635 7.06837 19.4007 6.91346C18.9171 9.09888 17.0838 10.7255 14.905 10.7366C13.1355 10.7366 11.3447 8.92737 10.0161 7.29522C10.0161 7.30075 10.0108 7.30075 10.0108 7.30628C10.0108 7.30628 9.41567 6.59256 8.76204 5.82351C8.76736 5.82351 8.0234 4.90508 7.23161 4.10284Z" fill="#29ABE2"/>
</g>
<defs>
<linearGradient id="paint0_linear_18_831" x1="12.4121" y1="1.58802" x2="19.2296" y2="8.18991" gradientUnits="userSpaceOnUse">
<stop offset="0.21" stop-color="#F15A24"/>
<stop offset="0.6841" stop-color="#FBB03B"/>
</linearGradient>
<linearGradient id="paint1_linear_18_831" x1="7.58471" y1="9.96088" x2="0.767219" y2="3.35901" gradientUnits="userSpaceOnUse">
<stop offset="0.21" stop-color="#ED1E79"/>
<stop offset="0.8929" stop-color="#522785"/>
</linearGradient>
<clipPath id="clip0_18_831">
<rect width="19.0667" height="9.94783" fill="white" transform="translate(0.466797 0.799805)"/>
</clipPath>
</defs>
</svg>
