<svg xmlns="http://www.w3.org/2000/svg" xmlns:xlink="http://www.w3.org/1999/xlink" width="28.13" height="26.073" viewBox="0 0 28.13 26.073">
  <defs>
    <clipPath id="clip-path">
      <rect id="사각형_123" data-name="사각형 123" width="28.13" height="26.052" fill="none"/>
    </clipPath>
  </defs>
  <g id="metamask_심볼" transform="translate(0 0.021)">
    <path id="패스_5" data-name="패스 5" d="M20.919,3.449,18.926,8.186,29.894.125Z" transform="translate(-3.198 -0.021)" fill="#e17726"/>
    <path id="패스_6" data-name="패스 6" d="M29.894.125,18.925,8.186l1.994-4.737Z" transform="translate(-3.198 -0.021)" fill="none" stroke="#e17726" stroke-linecap="round" stroke-linejoin="round" stroke-width="0.25"/>
    <path id="패스_7" data-name="패스 7" d="M12.628,8.269l-1.91-4.82L1.825.126Z" transform="translate(-0.308 -0.021)" fill="#e27625"/>
    <path id="패스_8" data-name="패스 8" d="M1.825.125l10.8,8.144-1.911-4.82Z" transform="translate(-0.308 -0.021)" fill="none" stroke="#e27625" stroke-linecap="round" stroke-linejoin="round" stroke-width="0.25"/>
    <path id="패스_9" data-name="패스 9" d="M23.925,27.13l6.233,1.745L31.9,22.809l-5.069-.083Z" transform="translate(-4.043 -3.84)" fill="#e27625"/>
    <g id="그룹_75" data-name="그룹 75" transform="translate(0 0)">
      <g id="그룹_74" data-name="그룹 74" clip-path="url(#clip-path)">
        <path id="패스_10" data-name="패스 10" d="M26.834,22.725l-2.909,4.4,6.233,1.745L31.9,22.808Z" transform="translate(-4.043 -3.84)" fill="none" stroke="#e27625" stroke-linecap="round" stroke-linejoin="round" stroke-width="0.25"/>
      </g>
    </g>
    <path id="패스_11" data-name="패스 11" d="M.425,22.808l1.746,6.066L8.4,27.13l-2.909-4.4Z" transform="translate(-0.072 -3.84)" fill="#e27625"/>
    <g id="그룹_77" data-name="그룹 77" transform="translate(0 0)">
      <g id="그룹_76" data-name="그룹 76" clip-path="url(#clip-path)">
        <path id="패스_12" data-name="패스 12" d="M.425,22.808,2.17,28.874,8.4,27.129l-2.909-4.4Z" transform="translate(-0.072 -3.84)" fill="none" stroke="#e27625" stroke-linecap="round" stroke-linejoin="round" stroke-width="0.25"/>
      </g>
    </g>
    <path id="패스_13" data-name="패스 13" d="M9.27,12.848,7.525,15.424l6.149.249-.166-6.648Z" transform="translate(-1.272 -1.525)" fill="#e27625"/>
    <path id="패스_14" data-name="패스 14" d="M9.27,12.848,7.525,15.424l6.149.249-.166-6.648Z" transform="translate(-1.272 -1.525)" fill="none" stroke="#e27625" stroke-linecap="round" stroke-linejoin="round" stroke-width="0.25"/>
    <path id="패스_15" data-name="패스 15" d="M23.412,12.848,19.091,9.025l-.166,6.731,6.149-.249Z" transform="translate(-3.198 -1.525)" fill="#e27625"/>
    <path id="패스_16" data-name="패스 16" d="M23.412,12.848,19.091,9.025l-.166,6.731,6.149-.249Z" transform="translate(-3.198 -1.525)" fill="none" stroke="#e27625" stroke-linecap="round" stroke-linejoin="round" stroke-width="0.25"/>
    <path id="패스_17" data-name="패스 17" d="M10.025,27.146l3.74-1.828-3.241-2.493Z" transform="translate(-1.694 -3.857)" fill="#e27625"/>
    <path id="패스_18" data-name="패스 18" d="M10.025,27.146l3.74-1.828-3.241-2.493Z" transform="translate(-1.694 -3.857)" fill="none" stroke="#e27625" stroke-linecap="round" stroke-linejoin="round" stroke-width="0.25"/>
    <path id="패스_19" data-name="패스 19" d="M19.425,25.318l3.74,1.828-.5-4.321Z" transform="translate(-3.283 -3.857)" fill="#e27625"/>
    <path id="패스_20" data-name="패스 20" d="M19.425,25.318l3.74,1.828-.5-4.321Z" transform="translate(-3.283 -3.857)" fill="none" stroke="#e27625" stroke-linecap="round" stroke-linejoin="round" stroke-width="0.25"/>
    <path id="패스_21" data-name="패스 21" d="M23.165,27.653l-3.74-1.828.332,2.41v1Z" transform="translate(-3.283 -4.364)" fill="#d5bfb2"/>
    <path id="패스_22" data-name="패스 22" d="M23.165,27.653l-3.74-1.828.332,2.41v1Z" transform="translate(-3.283 -4.364)" fill="none" stroke="#d5bfb2" stroke-linecap="round" stroke-linejoin="round" stroke-width="0.25"/>
    <path id="패스_23" data-name="패스 23" d="M10.025,27.67l3.49,1.662v-1l.332-2.41Z" transform="translate(-1.694 -4.381)" fill="#d5bfb2"/>
    <path id="패스_24" data-name="패스 24" d="M10.025,27.67l3.49,1.662v-1l.332-2.41Z" transform="translate(-1.694 -4.381)" fill="none" stroke="#d5bfb2" stroke-linecap="round" stroke-linejoin="round" stroke-width="0.25"/>
    <path id="패스_25" data-name="패스 25" d="M13.6,20.536l-3.075-.914,2.161-1Z" transform="translate(-1.779 -3.148)" fill="#233447"/>
    <path id="패스_26" data-name="패스 26" d="M13.6,20.536l-3.075-.914,2.161-1Z" transform="translate(-1.779 -3.148)" fill="none" stroke="#233447" stroke-linecap="round" stroke-linejoin="round" stroke-width="0.25"/>
    <path id="패스_27" data-name="패스 27" d="M19.625,20.536l.914-1.911,2.161,1Z" transform="translate(-3.317 -3.148)" fill="#233447"/>
    <path id="패스_28" data-name="패스 28" d="M19.625,20.536l.914-1.911,2.161,1Z" transform="translate(-3.317 -3.148)" fill="none" stroke="#233447" stroke-linecap="round" stroke-linejoin="round" stroke-width="0.25"/>
    <path id="패스_29" data-name="패스 29" d="M9.434,27.129l.5-4.4-3.407.083Z" transform="translate(-1.103 -3.84)" fill="#cc6228"/>
    <path id="패스_30" data-name="패스 30" d="M9.434,27.129l.5-4.4-3.407.083Z" transform="translate(-1.103 -3.84)" fill="none" stroke="#cc6228" stroke-linecap="round" stroke-linejoin="round" stroke-width="0.25"/>
    <path id="패스_31" data-name="패스 31" d="M23.225,22.725l.5,4.4,2.909-4.321Z" transform="translate(-3.925 -3.84)" fill="#cc6228"/>
    <path id="패스_32" data-name="패스 32" d="M23.225,22.725l.5,4.4,2.909-4.321Z" transform="translate(-3.925 -3.84)" fill="none" stroke="#cc6228" stroke-linecap="round" stroke-linejoin="round" stroke-width="0.25"/>
    <path id="패스_33" data-name="패스 33" d="M25.174,16.825l-6.149.249.582,3.158.914-1.911,2.161,1Z" transform="translate(-3.215 -2.843)" fill="#cc6228"/>
    <path id="패스_34" data-name="패스 34" d="M25.174,16.825l-6.149.249.582,3.158.914-1.911,2.161,1Z" transform="translate(-3.215 -2.843)" fill="none" stroke="#cc6228" stroke-linecap="round" stroke-linejoin="round" stroke-width="0.25"/>
    <path id="패스_35" data-name="패스 35" d="M10.018,19.318l2.161-1,.914,1.911.582-3.158-6.149-.249Z" transform="translate(-1.272 -2.843)" fill="#cc6228"/>
    <path id="패스_36" data-name="패스 36" d="M10.018,19.318l2.161-1,.914,1.911.582-3.158-6.149-.249Z" transform="translate(-1.272 -2.843)" fill="none" stroke="#cc6228" stroke-linecap="round" stroke-linejoin="round" stroke-width="0.25"/>
    <path id="패스_37" data-name="패스 37" d="M7.525,16.825,10.1,21.894,10.018,19.4Z" transform="translate(-1.272 -2.843)" fill="#e27525"/>
    <path id="패스_38" data-name="패스 38" d="M7.525,16.825,10.1,21.894,10.018,19.4Z" transform="translate(-1.272 -2.843)" fill="none" stroke="#e27525" stroke-linecap="round" stroke-linejoin="round" stroke-width="0.25"/>
    <path id="패스_39" data-name="패스 39" d="M23.408,19.3l-.083,2.493L25.9,16.725Z" transform="translate(-3.942 -2.826)" fill="#e27525"/>
    <path id="패스_40" data-name="패스 40" d="M23.408,19.3l-.083,2.493L25.9,16.725Z" transform="translate(-3.942 -2.826)" fill="none" stroke="#e27525" stroke-linecap="round" stroke-linejoin="round" stroke-width="0.25"/>
    <path id="패스_41" data-name="패스 41" d="M14.807,17.125l-.582,3.158.748,3.74.166-4.9Z" transform="translate(-2.404 -2.894)" fill="#e27525"/>
    <path id="패스_42" data-name="패스 42" d="M14.807,17.125l-.582,3.158.748,3.74.166-4.9Z" transform="translate(-2.404 -2.894)" fill="none" stroke="#e27525" stroke-linecap="round" stroke-linejoin="round" stroke-width="0.25"/>
    <path id="패스_43" data-name="패스 43" d="M18.857,17.125l-.332,1.994.166,4.9.748-3.74Z" transform="translate(-3.131 -2.894)" fill="#e27525"/>
    <path id="패스_44" data-name="패스 44" d="M18.857,17.125l-.332,1.994.166,4.9.748-3.74Z" transform="translate(-3.131 -2.894)" fill="none" stroke="#e27525" stroke-linecap="round" stroke-linejoin="round" stroke-width="0.25"/>
    <path id="패스_45" data-name="패스 45" d="M19.473,20.739l-.748,3.74.5.332,3.241-2.493.083-2.493Z" transform="translate(-3.164 -3.35)" fill="#f5841f"/>
    <path id="패스_46" data-name="패스 46" d="M19.473,20.739l-.748,3.74.5.332,3.241-2.493.083-2.493Z" transform="translate(-3.164 -3.35)" fill="none" stroke="#f5841f" stroke-linecap="round" stroke-linejoin="round" stroke-width="0.25"/>
    <path id="패스_47" data-name="패스 47" d="M10.525,19.825l.083,2.493,3.241,2.493.5-.332-.748-3.74Z" transform="translate(-1.779 -3.35)" fill="#f5841f"/>
    <path id="패스_48" data-name="패스 48" d="M10.525,19.825l.083,2.493,3.241,2.493.5-.332-.748-3.74Z" transform="translate(-1.779 -3.35)" fill="none" stroke="#f5841f" stroke-linecap="round" stroke-linejoin="round" stroke-width="0.25"/>
    <path id="패스_49" data-name="패스 49" d="M18.086,29.687v-1l-.25-.248H13.682l-.25.248v1l-3.406-1.662,1.247,1,2.41,1.662h4.237l2.494-1.662,1.163-1Z" transform="translate(-1.694 -4.736)" fill="#c0ac9d"/>
    <g id="그룹_79" data-name="그룹 79" transform="translate(0 0)">
      <g id="그룹_78" data-name="그룹 78" clip-path="url(#clip-path)">
        <path id="패스_50" data-name="패스 50" d="M18.086,29.687v-1l-.249-.249H13.681l-.249.249v1l-3.407-1.662,1.247,1,2.41,1.662H17.92l2.493-1.662,1.163-1Z" transform="translate(-1.694 -4.736)" fill="none" stroke="#c0ac9d" stroke-linecap="round" stroke-linejoin="round" stroke-width="0.25"/>
      </g>
    </g>
    <path id="패스_51" data-name="패스 51" d="M18.529,25.757l-.5-.332H14.956l-.5.332-.332,2.41.249-.249h4.155l.249.249Z" transform="translate(-2.387 -4.297)" fill="#161616"/>
    <path id="패스_52" data-name="패스 52" d="M18.529,25.757l-.5-.332H14.956l-.5.332-.332,2.41.249-.249h4.155l.249.249Z" transform="translate(-2.387 -4.297)" fill="none" stroke="#161616" stroke-linecap="round" stroke-linejoin="round" stroke-width="0.25"/>
    <path id="패스_53" data-name="패스 53" d="M19.425,7.936,23.5,11.344l5.734,1.662,1.247-1.5-.582-.332.915-.831-.665-.5.913-.665-.665-.416.914-4.487L29.9.125Z" transform="translate(-3.283 -0.021)" fill="#763e1a"/>
    <g id="그룹_81" data-name="그룹 81" transform="translate(0 0)">
      <g id="그룹_80" data-name="그룹 80" clip-path="url(#clip-path)">
        <path id="패스_54" data-name="패스 54" d="M30.394,8.767l.914-4.487L29.9.125,19.425,7.936,23.5,11.344l5.734,1.662,1.247-1.5-.582-.332.914-.831-.665-.5.914-.665Z" transform="translate(-3.283 -0.021)" fill="none" stroke="#763e1a" stroke-linecap="round" stroke-linejoin="round" stroke-width="0.25"/>
      </g>
    </g>
    <path id="패스_55" data-name="패스 55" d="M.125,4.28l.914,4.487-.582.416.914.666-.665.5.914.831-.582.416,1.247,1.5,5.733-1.662L12.092,8.02,1.538.126Z" transform="translate(-0.021 -0.021)" fill="#763e1a"/>
    <g id="그룹_83" data-name="그룹 83" transform="translate(0 0)">
      <g id="그룹_82" data-name="그룹 82" clip-path="url(#clip-path)">
        <path id="패스_56" data-name="패스 56" d="M.125,4.28l.914,4.487-.582.416.914.665-.665.5.914.831-.582.416,1.247,1.5L8.02,11.427,12.091,8.02,1.538.125Z" transform="translate(-0.021 -0.021)" fill="none" stroke="#763e1a" stroke-linecap="round" stroke-linejoin="round" stroke-width="0.25"/>
      </g>
    </g>
    <path id="패스_57" data-name="패스 57" d="M25.9,16.2,23.325,21.27l3.407-.083H31.8l-1.911-5.9-5.734-1.662Z" transform="translate(-3.942 -2.303)" fill="#f5841f"/>
    <g id="그룹_85" data-name="그룹 85" transform="translate(0 0)">
      <g id="그룹_84" data-name="그룹 84" clip-path="url(#clip-path)">
        <path id="패스_58" data-name="패스 58" d="M29.89,15.287l-5.734-1.662L25.9,16.2,23.325,21.27l3.407-.083H31.8Z" transform="translate(-3.942 -2.303)" fill="none" stroke="#f5841f" stroke-linecap="round" stroke-linejoin="round" stroke-width="0.25"/>
      </g>
    </g>
    <path id="패스_59" data-name="패스 59" d="M2.337,15.287l-1.911,5.9H5.494L8.9,21.27,6.325,16.2,8.07,13.625Z" transform="translate(-0.072 -2.303)" fill="#f5841f"/>
    <g id="그룹_87" data-name="그룹 87" transform="translate(0 0)">
      <g id="그룹_86" data-name="그룹 86" clip-path="url(#clip-path)">
        <path id="패스_60" data-name="패스 60" d="M8.07,13.625,2.336,15.287l-1.911,5.9H5.494L8.9,21.27,6.325,16.2Z" transform="translate(-0.072 -2.303)" fill="none" stroke="#f5841f" stroke-linecap="round" stroke-linejoin="round" stroke-width="0.25"/>
      </g>
    </g>
    <path id="패스_61" data-name="패스 61" d="M17.827,14.928l.332-6.316,1.662-4.487h-7.4l1.662,4.487.332,6.316.166,1.994v4.9H17.66v-4.9Z" transform="translate(-2.1 -0.697)" fill="#f5841f"/>
    <path id="패스_62" data-name="패스 62" d="M17.827,14.928l.332-6.316,1.662-4.487h-7.4l1.662,4.487.332,6.316.166,1.994v4.9H17.66v-4.9Z" transform="translate(-2.1 -0.697)" fill="none" stroke="#f5841f" stroke-linecap="round" stroke-linejoin="round" stroke-width="0.25"/>
  </g>
</svg>
