<?xml version="1.0" encoding="utf-8"?>
<!-- Generator: Adobe Illustrator 26.5.0, SVG Export Plug-In . SVG Version: 6.00 Build 0)  -->
<svg version="1.1" id="_xB7__xB9_ÀÌ_xBE_î_x5F_1"
	 xmlns="http://www.w3.org/2000/svg" xmlns:xlink="http://www.w3.org/1999/xlink" x="0px" y="0px" viewBox="0 0 201.9 201.9"
	 style="enable-background:new 0 0 201.9 201.9;" xml:space="preserve">
<style type="text/css">
	.st0{fill:url(#SVGID_1_);}
	.st1{fill:#57C0CE;}
	.st2{fill:url(#SVGID_00000083808060606750964530000008893640588080814501_);}
	.st3{fill:url(#SVGID_00000025426927978039902230000009867898859589544838_);}
	.st4{fill:#57C0CE;stroke:#000000;stroke-width:0.5;stroke-miterlimit:10;}
	.st5{fill:url(#SVGID_00000169557770349021162690000014725320806750082700_);}
	.st6{fill:url(#SVGID_00000051383949709476873750000012052017454613221785_);}
	.st7{fill:url(#SVGID_00000002363586244726297350000001892131630979869601_);}
	.st8{fill:url(#SVGID_00000032625490458072331490000018018165506726137988_);}
	.st9{fill:url(#SVGID_00000060730714469690751540000015139669478074428847_);}
	.st10{fill:url(#SVGID_00000035505138090145920070000000066857878513767330_);}
	.st11{fill:url(#SVGID_00000183230154913797791940000002163219067166929555_);}
	.st12{fill:url(#SVGID_00000054969684321986579240000012497347391973001370_);}
	.st13{fill:url(#SVGID_00000181779203730155435710000000125614801107525261_);}
	.st14{fill:url(#SVGID_00000073684054223659912940000002258427154578443421_);}
</style>
<g>
	<linearGradient id="SVGID_1_" gradientUnits="userSpaceOnUse" x1="0" y1="100.9286" x2="201.8571" y2="100.9286">
		<stop  offset="0" style="stop-color:#2CBBE3"/>
		<stop  offset="0.4832" style="stop-color:#A379B3"/>
		<stop  offset="1" style="stop-color:#E9505B"/>
	</linearGradient>
	<circle class="st0" cx="100.9" cy="100.9" r="100.9"/>
	<g>
		<path class="st1" d="M119.5,120.6l0.2,0.5C119.6,120.9,119.5,120.8,119.5,120.6z"/>
		
			<linearGradient id="SVGID_00000076579531506345871030000011012582273894574520_" gradientUnits="userSpaceOnUse" x1="45.542" y1="105.3702" x2="120.3673" y2="105.3702">
			<stop  offset="0" style="stop-color:#C9CACA"/>
			<stop  offset="0.7437" style="stop-color:#F7F8F8"/>
		</linearGradient>
		<path style="fill:url(#SVGID_00000076579531506345871030000011012582273894574520_);" d="M67.8,90.1c16.6,0,26.3,14.4,29.7,21.8
			c3.4,7.4,8.6,16.2,8.6,16.2c1.3,2.4,3.7,3.8,6.6,3.8c4.2,0,7.7-3.4,7.7-7.7c0-1.2-0.2-2.3-0.7-3.3l-0.2-0.5l0,0l0,0L108.6,99
			c-5.3-11.9-17.3-20.3-31.2-20.3S51.5,87.1,46.2,99l-0.7,1.4h0C45.5,100.4,51.1,90.1,67.8,90.1z"/>
		
			<linearGradient id="SVGID_00000131325318991958801730000017918699031179038105_" gradientUnits="userSpaceOnUse" x1="48.8169" y1="134.3175" x2="126.8071" y2="111.126">
			<stop  offset="0" style="stop-color:#DCDDDD"/>
			<stop  offset="9.296482e-02" style="stop-color:#C9CACA"/>
			<stop  offset="0.4749" style="stop-color:#DCDDDD"/>
			<stop  offset="1" style="stop-color:#F7F8F8"/>
		</linearGradient>
		<path style="fill:url(#SVGID_00000131325318991958801730000017918699031179038105_);" d="M120.2,122L120.2,122
			c0.9,1.8,1.4,3.8,1.4,6c0,7.2-5.8,13-13,13c-4.4,0-8.2-2.1-10.6-5.4c-3.4-5.1-12.6-26.6-17.6-31.1c-3.2-3.8-7.4-5.6-12.8-5.6
			c-6.6,0-12.4,3.7-15.4,9.1l-9.9,18.7c-1,1.8-1.5,3.9-1.5,6.1c0,7.2,5.8,13,13,13c4.1,0,7.8-1.9,10.2-4.9L64,141
			c0.9-1.1,1.6-2.3,2.2-3.6l0.4-0.8l0,0c-1.4,2.7-4.1,4.5-7.3,4.5c-4.6,0-8.3-3.7-8.3-8.3c0-1.4,0.3-2.7,1-3.9l7.5-15.2
			c1.9-3.7,4.2-5.3,7.7-5.3c1.1,0,2.1,0.2,3,0.6c4.6,1.7,7.1,6.1,7.1,6.1l11.1,22.2c2.8,6.1,8.9,10.3,16,10.3
			c9.7,0,17.6-7.9,17.6-17.6c0-2.7-0.6-5.2-1.7-7.5L120.2,122z"/>
		<polygon class="st4" points="119.5,120.6 119.5,120.6 119.5,120.6 		"/>
		
			<linearGradient id="SVGID_00000178927755029379449590000011929820752888222350_" gradientUnits="userSpaceOnUse" x1="54.7469" y1="139.6218" x2="71.9567" y2="109.8135">
			<stop  offset="0" style="stop-color:#C9CACA"/>
			<stop  offset="0.4749" style="stop-color:#DCDDDD"/>
			<stop  offset="1" style="stop-color:#B5B6B6"/>
		</linearGradient>
		<path style="fill:url(#SVGID_00000178927755029379449590000011929820752888222350_);" d="M70.3,109c-0.9-0.4-2-0.6-3-0.6
			c-3.5,0-5.8,1.6-7.7,5.3L52,128.9c-0.6,1.2-1,2.5-1,3.9c0,4.6,3.7,8.3,8.3,8.3c3.2,0,6-1.8,7.3-4.5l0,0l10.7-21.4
			C77.4,115.1,74.9,110.8,70.3,109z"/>
		
			<linearGradient id="SVGID_00000166658833593621841050000002521889902342055319_" gradientUnits="userSpaceOnUse" x1="69.4012" y1="95.375" x2="82.2256" y2="151.4192">
			<stop  offset="0" style="stop-color:#DCDDDD"/>
			<stop  offset="9.296482e-02" style="stop-color:#C9CACA"/>
			<stop  offset="0.4749" style="stop-color:#DCDDDD"/>
			<stop  offset="1" style="stop-color:#F7F8F8"/>
		</linearGradient>
		<path style="fill:url(#SVGID_00000166658833593621841050000002521889902342055319_);" d="M53.8,145.8c-7.2,0-13-5.8-13-13
			c0-2.2,0.6-4.3,1.5-6.1l9.9-18.7c3-5.4,8.7-9.1,15.4-9.1c5.3,0,9.6,1.8,12.8,5.6c5,4.6,14.3,26,17.6,31.1
			c2.4,3.3,6.2,5.4,10.6,5.4c7.2,0,13-5.8,13-13c0-2.2-0.5-4.2-1.4-6l0,0l-0.5-0.9c0.5,1,0.7,2.1,0.7,3.3c0,4.2-3.4,7.7-7.7,7.7
			c-2.9,0-5.3-1.4-6.6-3.8c0,0-5.1-8.8-8.6-16.2c-3.4-7.4-13.1-21.8-29.7-21.8c-16.6,0-22.2,10.2-22.2,10.2h0l-11.2,22.2
			c-1.1,2.3-1.7,4.8-1.7,7.5c0,9.7,7.9,17.6,17.6,17.6c5.6,0,10.5-2.6,13.8-6.6l-0.1-0.1C61.6,143.9,57.9,145.8,53.8,145.8z"/>
		
			<linearGradient id="SVGID_00000025431094895704113290000004731625000065206176_" gradientUnits="userSpaceOnUse" x1="65.0029" y1="70.9004" x2="170.7554" y2="131.9567">
			<stop  offset="0" style="stop-color:#C9CACA"/>
			<stop  offset="0.7437" style="stop-color:#F7F8F8"/>
		</linearGradient>
		<path style="fill:url(#SVGID_00000025431094895704113290000004731625000065206176_);" d="M162.6,131.2c-4.9,1.1-8.7-1.9-10.6-4.4
			c-1.9-2.5-14.5-28.8-19.4-37.8c-4.9-9-13.1-20.8-33.8-23.8C78,62.3,62,76.1,62,76.1s17.5-7.2,32.9,0.3
			c15.4,7.6,19.9,19.6,24.6,28.9l16.5,32.8l0,0c2.9,5.6,8.8,9.5,15.6,9.5c9.7,0,17.6-7.9,17.6-17.6c0-2.3-0.4-4.5-1.2-6.5
			C168.6,125.7,167.5,130.1,162.6,131.2z"/>
		
			<linearGradient id="SVGID_00000004546046006900993770000007612455617759773578_" gradientUnits="userSpaceOnUse" x1="112.6765" y1="105.3721" x2="135.3092" y2="66.1712">
			<stop  offset="0" style="stop-color:#C9CACA"/>
			<stop  offset="0.7437" style="stop-color:#F7F8F8"/>
		</linearGradient>
		<path style="fill:url(#SVGID_00000004546046006900993770000007612455617759773578_);" d="M98.8,65.3c20.8,3,29,14.8,33.8,23.8
			c4.9,9,17.5,35.3,19.4,37.8c1.9,2.5,5.7,5.6,10.6,4.4c4.9-1.1,5.9-5.6,5.3-7.7c0-0.1-0.1-0.2-0.1-0.3l0,0
			c-0.2-0.5-0.4-0.9-0.6-1.3C163.9,115.1,149,84,144,77.7c-5.7-7.1-15.9-20.8-37.3-23.1C74.7,51.2,62,76.1,62,76.1
			S78,62.3,98.8,65.3z"/>
	</g>
	<g>
		<path class="st1" d="M119.5,120.6l0.2,0.5C119.6,120.9,119.5,120.8,119.5,120.6z"/>
		
			<linearGradient id="SVGID_00000127019165104081907730000003264266460248397955_" gradientUnits="userSpaceOnUse" x1="45.542" y1="105.3702" x2="120.3673" y2="105.3702">
			<stop  offset="0" style="stop-color:#C9CACA"/>
			<stop  offset="0.7437" style="stop-color:#F7F8F8"/>
		</linearGradient>
		<path style="fill:url(#SVGID_00000127019165104081907730000003264266460248397955_);" d="M67.8,90.1c16.6,0,26.3,14.4,29.7,21.8
			c3.4,7.4,8.6,16.2,8.6,16.2c1.3,2.4,3.7,3.8,6.6,3.8c4.2,0,7.7-3.4,7.7-7.7c0-1.2-0.2-2.3-0.7-3.3l-0.2-0.5l0,0l0,0L108.6,99
			c-5.3-11.9-17.3-20.3-31.2-20.3S51.5,87.1,46.2,99l-0.7,1.4h0C45.5,100.4,51.1,90.1,67.8,90.1z"/>
		
			<linearGradient id="SVGID_00000032640692079064742710000012195323637463824288_" gradientUnits="userSpaceOnUse" x1="48.8169" y1="134.3175" x2="126.8071" y2="111.126">
			<stop  offset="0" style="stop-color:#DCDDDD"/>
			<stop  offset="9.296482e-02" style="stop-color:#C9CACA"/>
			<stop  offset="0.4749" style="stop-color:#DCDDDD"/>
			<stop  offset="1" style="stop-color:#F7F8F8"/>
		</linearGradient>
		<path style="fill:url(#SVGID_00000032640692079064742710000012195323637463824288_);" d="M120.2,122L120.2,122
			c0.9,1.8,1.4,3.8,1.4,6c0,7.2-5.8,13-13,13c-4.4,0-8.2-2.1-10.6-5.4c-3.4-5.1-12.6-26.6-17.6-31.1c-3.2-3.8-7.4-5.6-12.8-5.6
			c-6.6,0-12.4,3.7-15.4,9.1l-9.9,18.7c-1,1.8-1.5,3.9-1.5,6.1c0,7.2,5.8,13,13,13c4.1,0,7.8-1.9,10.2-4.9L64,141
			c0.9-1.1,1.6-2.3,2.2-3.6l0.4-0.8l0,0c-1.4,2.7-4.1,4.5-7.3,4.5c-4.6,0-8.3-3.7-8.3-8.3c0-1.4,0.3-2.7,1-3.9l7.5-15.2
			c1.9-3.7,4.2-5.3,7.7-5.3c1.1,0,2.1,0.2,3,0.6c4.6,1.7,7.1,6.1,7.1,6.1l11.1,22.2c2.8,6.1,8.9,10.3,16,10.3
			c9.7,0,17.6-7.9,17.6-17.6c0-2.7-0.6-5.2-1.7-7.5L120.2,122z"/>
		<polygon class="st4" points="119.5,120.6 119.5,120.6 119.5,120.6 		"/>
		
			<linearGradient id="SVGID_00000015343482451040225980000011761221865763134083_" gradientUnits="userSpaceOnUse" x1="54.7469" y1="139.6218" x2="71.9567" y2="109.8135">
			<stop  offset="0" style="stop-color:#C9CACA"/>
			<stop  offset="0.4749" style="stop-color:#DCDDDD"/>
			<stop  offset="1" style="stop-color:#B5B6B6"/>
		</linearGradient>
		<path style="fill:url(#SVGID_00000015343482451040225980000011761221865763134083_);" d="M70.3,109c-0.9-0.4-2-0.6-3-0.6
			c-3.5,0-5.8,1.6-7.7,5.3L52,128.9c-0.6,1.2-1,2.5-1,3.9c0,4.6,3.7,8.3,8.3,8.3c3.2,0,6-1.8,7.3-4.5l0,0l10.7-21.4
			C77.4,115.1,74.9,110.8,70.3,109z"/>
		
			<linearGradient id="SVGID_00000170977031261712182360000005349540689568662422_" gradientUnits="userSpaceOnUse" x1="69.4012" y1="95.375" x2="82.2256" y2="151.4192">
			<stop  offset="0" style="stop-color:#DCDDDD"/>
			<stop  offset="9.296482e-02" style="stop-color:#C9CACA"/>
			<stop  offset="0.4749" style="stop-color:#DCDDDD"/>
			<stop  offset="1" style="stop-color:#F7F8F8"/>
		</linearGradient>
		<path style="fill:url(#SVGID_00000170977031261712182360000005349540689568662422_);" d="M53.8,145.8c-7.2,0-13-5.8-13-13
			c0-2.2,0.6-4.3,1.5-6.1l9.9-18.7c3-5.4,8.7-9.1,15.4-9.1c5.3,0,9.6,1.8,12.8,5.6c5,4.6,14.3,26,17.6,31.1
			c2.4,3.3,6.2,5.4,10.6,5.4c7.2,0,13-5.8,13-13c0-2.2-0.5-4.2-1.4-6l0,0l-0.5-0.9c0.5,1,0.7,2.1,0.7,3.3c0,4.2-3.4,7.7-7.7,7.7
			c-2.9,0-5.3-1.4-6.6-3.8c0,0-5.1-8.8-8.6-16.2c-3.4-7.4-13.1-21.8-29.7-21.8c-16.6,0-22.2,10.2-22.2,10.2h0l-11.2,22.2
			c-1.1,2.3-1.7,4.8-1.7,7.5c0,9.7,7.9,17.6,17.6,17.6c5.6,0,10.5-2.6,13.8-6.6l-0.1-0.1C61.6,143.9,57.9,145.8,53.8,145.8z"/>
		
			<linearGradient id="SVGID_00000154407262346542261530000015863038537114646433_" gradientUnits="userSpaceOnUse" x1="65.0029" y1="70.9004" x2="170.7554" y2="131.9567">
			<stop  offset="0" style="stop-color:#C9CACA"/>
			<stop  offset="0.7437" style="stop-color:#F7F8F8"/>
		</linearGradient>
		<path style="fill:url(#SVGID_00000154407262346542261530000015863038537114646433_);" d="M162.6,131.2c-4.9,1.1-8.7-1.9-10.6-4.4
			c-1.9-2.5-14.5-28.8-19.4-37.8c-4.9-9-13.1-20.8-33.8-23.8C78,62.3,62,76.1,62,76.1s17.5-7.2,32.9,0.3
			c15.4,7.6,19.9,19.6,24.6,28.9l16.5,32.8l0,0c2.9,5.6,8.8,9.5,15.6,9.5c9.7,0,17.6-7.9,17.6-17.6c0-2.3-0.4-4.5-1.2-6.5
			C168.6,125.7,167.5,130.1,162.6,131.2z"/>
		
			<linearGradient id="SVGID_00000153691570633082888740000007315773797309290409_" gradientUnits="userSpaceOnUse" x1="112.6765" y1="105.3721" x2="135.3092" y2="66.1712">
			<stop  offset="0" style="stop-color:#C9CACA"/>
			<stop  offset="0.7437" style="stop-color:#F7F8F8"/>
		</linearGradient>
		<path style="fill:url(#SVGID_00000153691570633082888740000007315773797309290409_);" d="M98.8,65.3c20.8,3,29,14.8,33.8,23.8
			c4.9,9,17.5,35.3,19.4,37.8c1.9,2.5,5.7,5.6,10.6,4.4c4.9-1.1,5.9-5.6,5.3-7.7c0-0.1-0.1-0.2-0.1-0.3l0,0
			c-0.2-0.5-0.4-0.9-0.6-1.3C163.9,115.1,149,84,144,77.7c-5.7-7.1-15.9-20.8-37.3-23.1C74.7,51.2,62,76.1,62,76.1
			S78,62.3,98.8,65.3z"/>
	</g>
</g>
</svg>
