<?xml version="1.0" encoding="UTF-8"?>
<svg id="Layer_1" xmlns="http://www.w3.org/2000/svg" version="1.1" xmlns:xlink="http://www.w3.org/1999/xlink" viewBox="0 0 127.6 127.6">
  <!-- Generator: Adobe Illustrator 29.0.0, SVG Export Plug-In . SVG Version: 2.1.0 Build 186)  -->
  <defs>
    <style>
      .st0 {
        clip-path: url(#clippath-6);
      }

      .st1 {
        fill: #e17726;
      }

      .st2 {
        clip-path: url(#clippath-4);
      }

      .st3 {
        stroke: #233447;
      }

      .st3, .st4, .st5, .st6, .st7, .st8, .st9, .st10, .st11, .st12, .st13 {
        fill: none;
      }

      .st3, .st4, .st5, .st7, .st8, .st9, .st10, .st11, .st12, .st13 {
        stroke-linecap: round;
        stroke-linejoin: round;
        stroke-width: .2px;
      }

      .st4 {
        stroke: #763e1a;
      }

      .st14 {
        fill: #cc6228;
      }

      .st15 {
        fill: #e27625;
      }

      .st5 {
        stroke: #e17726;
      }

      .st7 {
        stroke: #c0ac9d;
      }

      .st16 {
        clip-path: url(#clippath-1);
      }

      .st8 {
        stroke: #e27625;
      }

      .st9 {
        stroke: #161616;
      }

      .st17 {
        clip-path: url(#clippath-5);
      }

      .st18 {
        fill: #f5841f;
      }

      .st10 {
        stroke: #e27525;
      }

      .st19 {
        clip-path: url(#clippath-3);
      }

      .st20 {
        fill: #233447;
      }

      .st21 {
        fill: #e27525;
      }

      .st22 {
        fill: #c0ac9d;
      }

      .st23 {
        fill: #d5bfb2;
      }

      .st24 {
        clip-path: url(#clippath-2);
      }

      .st11 {
        stroke: #d5bfb2;
      }

      .st12 {
        stroke: #cc6228;
      }

      .st25 {
        fill: #763e1a;
      }

      .st26 {
        clip-path: url(#clippath);
      }

      .st13 {
        stroke: #f5841f;
      }

      .st27 {
        fill: #161616;
      }
    </style>
    <clipPath id="clippath">
      <rect class="st6" x="21.3" y="24.4" width="85" height="78.8"/>
    </clipPath>
    <clipPath id="clippath-1">
      <rect class="st6" x="21.3" y="24.4" width="85" height="78.8"/>
    </clipPath>
    <clipPath id="clippath-2">
      <rect class="st6" x="21.3" y="24.4" width="85" height="78.8"/>
    </clipPath>
    <clipPath id="clippath-3">
      <rect class="st6" x="21.3" y="24.4" width="85" height="78.8"/>
    </clipPath>
    <clipPath id="clippath-4">
      <rect class="st6" x="21.3" y="24.4" width="85" height="78.8"/>
    </clipPath>
    <clipPath id="clippath-5">
      <rect class="st6" x="21.3" y="24.4" width="85" height="78.8"/>
    </clipPath>
    <clipPath id="clippath-6">
      <rect class="st6" x="21.3" y="24.4" width="85" height="78.8"/>
    </clipPath>
  </defs>
  <g id="metamask_심볼">
    <path id="_패스_5" data-name="패스_5" class="st1" d="M74.8,34.8l-6,14.3,33.2-24.4-27.1,10Z"/>
    <path id="_패스_6" data-name="패스_6" class="st5" d="M102,24.7l-33.2,24.4,6-14.3,27.1-10Z"/>
    <path id="_패스_7" data-name="패스_7" class="st15" d="M58.5,49.3l-5.8-14.6-26.9-10,32.7,24.6Z"/>
    <path id="_패스_8" data-name="패스_8" class="st8" d="M25.8,24.7l32.6,24.6-5.8-14.6-26.9-10Z"/>
    <path id="_패스_9" data-name="패스_9" class="st15" d="M81.4,94.8l18.8,5.3,5.3-18.3-15.3-.3-8.8,13.3Z"/>
    <g id="_그룹_75" data-name="그룹_75">
      <g class="st26">
        <g id="_그룹_74" data-name="그룹_74">
          <path id="_패스_10" data-name="패스_10" class="st8" d="M90.2,81.5l-8.8,13.3,18.8,5.3,5.3-18.3-15.3-.3Z"/>
        </g>
      </g>
    </g>
    <path id="_패스_11" data-name="패스_11" class="st15" d="M22.3,81.7l5.3,18.3,18.8-5.3-8.8-13.3-15.3.2Z"/>
    <g id="_그룹_77" data-name="그룹_77">
      <g class="st16">
        <g id="_그룹_76" data-name="그룹_76">
          <path id="_패스_12" data-name="패스_12" class="st8" d="M22.3,81.7l5.3,18.3,18.8-5.3-8.8-13.3-15.3.2Z"/>
        </g>
      </g>
    </g>
    <path id="_패스_13" data-name="패스_13" class="st15" d="M45.4,58.6l-5.3,7.8,18.6.8-.5-20.1-12.8,11.6Z"/>
    <path id="_패스_14" data-name="패스_14" class="st8" d="M45.4,58.6l-5.3,7.8,18.6.8-.5-20.1-12.8,11.6Z"/>
    <path id="_패스_15" data-name="패스_15" class="st15" d="M82.4,58.6l-13.1-11.6-.5,20.3,18.6-.8-5-8Z"/>
    <path id="_패스_16" data-name="패스_16" class="st8" d="M82.4,58.6l-13.1-11.6-.5,20.3,18.6-.8-5-8Z"/>
    <path id="_패스_17" data-name="패스_17" class="st15" d="M46.4,94.8l11.3-5.5-9.8-7.5-1.5,13.1Z"/>
    <path id="_패스_18" data-name="패스_18" class="st8" d="M46.4,94.8l11.3-5.5-9.8-7.5-1.5,13.1Z"/>
    <path id="_패스_19" data-name="패스_19" class="st15" d="M70.1,89.3l11.3,5.5-1.5-13.1-9.8,7.5Z"/>
    <path id="_패스_20" data-name="패스_20" class="st8" d="M70.1,89.3l11.3,5.5-1.5-13.1-9.8,7.5Z"/>
    <path id="_패스_21" data-name="패스_21" class="st23" d="M81.4,94.8l-11.3-5.5,1,7.3v3l10.3-4.8Z"/>
    <path id="_패스_22" data-name="패스_22" class="st11" d="M81.4,94.8l-11.3-5.5,1,7.3v3l10.3-4.8Z"/>
    <path id="_패스_23" data-name="패스_23" class="st23" d="M46.4,94.8l10.6,5v-3l1-7.3-11.6,5.3Z"/>
    <path id="_패스_24" data-name="패스_24" class="st11" d="M46.4,94.8l10.6,5v-3l1-7.3-11.6,5.3Z"/>
    <path id="_패스_25" data-name="패스_25" class="st20" d="M57,77l-9.3-2.8,6.5-3,2.8,5.8Z"/>
    <path id="_패스_26" data-name="패스_26" class="st3" d="M57,77l-9.3-2.8,6.5-3,2.8,5.8Z"/>
    <path id="_패스_27" data-name="패스_27" class="st20" d="M70.6,77l2.8-5.8,6.5,3-9.3,2.8Z"/>
    <path id="_패스_28" data-name="패스_28" class="st3" d="M70.6,77l2.8-5.8,6.5,3-9.3,2.8Z"/>
    <path id="_패스_29" data-name="패스_29" class="st14" d="M46.4,94.8l1.5-13.3-10.3.3,8.8,13.1Z"/>
    <path id="_패스_30" data-name="패스_30" class="st12" d="M46.4,94.8l1.5-13.3-10.3.3,8.8,13.1Z"/>
    <path id="_패스_31" data-name="패스_31" class="st14" d="M79.6,81.5l1.5,13.3,8.8-13.1-10.3-.2Z"/>
    <path id="_패스_32" data-name="패스_32" class="st12" d="M79.6,81.5l1.5,13.3,8.8-13.1-10.3-.2Z"/>
    <path id="_패스_33" data-name="패스_33" class="st14" d="M87.6,66.7l-18.6.8,1.8,9.5,2.8-5.8,6.5,3,7.5-7.5Z"/>
    <path id="_패스_34" data-name="패스_34" class="st12" d="M87.6,66.7l-18.6.8,1.8,9.5,2.8-5.8,6.5,3,7.5-7.5Z"/>
    <path id="_패스_35" data-name="패스_35" class="st14" d="M47.7,74.2l6.5-3,2.8,5.8,1.8-9.5-18.6-.8,7.5,7.5Z"/>
    <path id="_패스_36" data-name="패스_36" class="st12" d="M47.7,74.2l6.5-3,2.8,5.8,1.8-9.5-18.6-.8,7.5,7.5Z"/>
    <path id="_패스_37" data-name="패스_37" class="st21" d="M40.2,66.7l7.8,15.3-.2-7.5-7.5-7.8Z"/>
    <path id="_패스_38" data-name="패스_38" class="st10" d="M40.2,66.7l7.8,15.3-.2-7.5-7.5-7.8Z"/>
    <path id="_패스_39" data-name="패스_39" class="st21" d="M80.1,74.2l-.3,7.5,7.8-15.3-7.5,7.8Z"/>
    <path id="_패스_40" data-name="패스_40" class="st10" d="M80.1,74.2l-.3,7.5,7.8-15.3-7.5,7.8Z"/>
    <path id="_패스_41" data-name="패스_41" class="st21" d="M58.8,67.4l-1.8,9.5,2.3,11.3.5-14.8-1-6Z"/>
    <path id="_패스_42" data-name="패스_42" class="st10" d="M58.8,67.4l-1.8,9.5,2.3,11.3.5-14.8-1-6Z"/>
    <path id="_패스_43" data-name="패스_43" class="st21" d="M68.8,67.4l-1,6,.5,14.8,2.3-11.3-1.8-9.5Z"/>
    <path id="_패스_44" data-name="패스_44" class="st10" d="M68.8,67.4l-1,6,.5,14.8,2.3-11.3-1.8-9.5Z"/>
    <path id="_패스_45" data-name="패스_45" class="st18" d="M70.6,77l-2.3,11.3,1.5,1,9.8-7.5.3-7.5-9.3,2.8Z"/>
    <path id="_패스_46" data-name="패스_46" class="st13" d="M70.6,77l-2.3,11.3,1.5,1,9.8-7.5.3-7.5-9.3,2.8Z"/>
    <path id="_패스_47" data-name="패스_47" class="st18" d="M47.7,74.2l.3,7.5,9.8,7.5,1.5-1-2.3-11.3-9.3-2.8Z"/>
    <path id="_패스_48" data-name="패스_48" class="st13" d="M47.7,74.2l.3,7.5,9.8,7.5,1.5-1-2.3-11.3-9.3-2.8Z"/>
    <path id="_패스_49" data-name="패스_49" class="st22" d="M70.8,99.8v-3l-.8-.7h-12.6l-.8.7v3l-10.3-5,3.8,3,7.3,5h12.8l7.5-5,3.5-3-10.6,5Z"/>
    <g id="_그룹_79" data-name="그룹_79">
      <g class="st24">
        <g id="_그룹_78" data-name="그룹_78">
          <path id="_패스_50" data-name="패스_50" class="st7" d="M70.8,99.8v-3l-.8-.8h-12.6l-.8.8v3l-10.3-5,3.8,3,7.3,5h12.8l7.5-5,3.5-3-10.6,5Z"/>
        </g>
      </g>
    </g>
    <path id="_패스_51" data-name="패스_51" class="st27" d="M70.1,89.3l-1.5-1h-9.3l-1.5,1-1,7.3.8-.8h12.6l.8.8-.7-7.3Z"/>
    <path id="_패스_52" data-name="패스_52" class="st9" d="M70.1,89.3l-1.5-1h-9.3l-1.5,1-1,7.3.8-.8h12.6l.8.8-.7-7.3Z"/>
    <path id="_패스_53" data-name="패스_53" class="st25" d="M70.1,48.3l12.3,10.3,17.3,5,3.8-4.5-1.8-1,2.8-2.5-2-1.5,2.8-2-2-1.3,2.8-13.6-4.3-12.5-31.7,23.6Z"/>
    <g id="_그룹_81" data-name="그룹_81">
      <g class="st19">
        <g id="_그룹_80" data-name="그룹_80">
          <path id="_패스_54" data-name="패스_54" class="st4" d="M103.2,50.8l2.8-13.6-4.3-12.6-31.7,23.6,12.3,10.3,17.3,5,3.8-4.5-1.8-1,2.8-2.5-2-1.5,2.8-2-2-1.2Z"/>
        </g>
      </g>
    </g>
    <path id="_패스_55" data-name="패스_55" class="st25" d="M21.6,37.3l2.8,13.6-1.8,1.3,2.8,2-2,1.5,2.8,2.5-1.8,1.3,3.8,4.5,17.3-5,12.3-10.3-31.9-23.9-4.3,12.6Z"/>
    <g id="_그룹_83" data-name="그룹_83">
      <g class="st2">
        <g id="_그룹_82" data-name="그룹_82">
          <path id="_패스_56" data-name="패스_56" class="st4" d="M21.6,37.3l2.8,13.6-1.8,1.3,2.8,2-2,1.5,2.8,2.5-1.8,1.3,3.8,4.5,17.3-5,12.3-10.3-31.9-23.9-4.3,12.6Z"/>
        </g>
      </g>
    </g>
    <path id="_패스_57" data-name="패스_57" class="st18" d="M87.6,66.4l-7.8,15.3,10.3-.3h15.3l-5.8-17.8-17.3-5,5.3,7.8Z"/>
    <g id="_그룹_85" data-name="그룹_85">
      <g class="st17">
        <g id="_그룹_84" data-name="그룹_84">
          <path id="_패스_58" data-name="패스_58" class="st13" d="M99.7,63.7l-17.3-5,5.3,7.8-7.8,15.3,10.3-.3h15.3l-5.8-17.8Z"/>
        </g>
      </g>
    </g>
    <path id="_패스_59" data-name="패스_59" class="st18" d="M28.1,63.7l-5.8,17.8h15.3l10.3.3-7.8-15.3,5.3-7.8-17.3,5Z"/>
    <g id="_그룹_87" data-name="그룹_87">
      <g class="st0">
        <g id="_그룹_86" data-name="그룹_86">
          <path id="_패스_60" data-name="패스_60" class="st13" d="M45.4,58.6l-17.3,5-5.8,17.8h15.3l10.3.3-7.8-15.3,5.3-7.8Z"/>
        </g>
      </g>
    </g>
    <path id="_패스_61" data-name="패스_61" class="st18" d="M68.8,67.4l1-19.1,5-13.6h-22.4l5,13.6,1,19.1.5,6v14.8h9.3v-14.8l.5-6Z"/>
    <path id="_패스_62" data-name="패스_62" class="st13" d="M68.8,67.4l1-19.1,5-13.6h-22.4l5,13.6,1,19.1.5,6v14.8h9.3v-14.8l.5-6Z"/>
  </g>
</svg>