<svg width="175" height="117" viewBox="0 0 175 117" fill="none" xmlns="http://www.w3.org/2000/svg">
<path d="M36 105.5C36 85.9575 51.7697 70.1152 71.2227 70.1152H87.7773C107.23 70.1152 123 85.9575 123 105.5C123 111.363 118.269 116.115 112.433 116.115H46.5668C40.7309 116.115 36 111.363 36 105.5Z" fill="url(#paint0_linear_23_676)"/>
<path d="M0 107.692C0 92.3983 12.507 80 27.9352 80H41.0648C56.493 80 69 92.3983 69 107.692C69 112.281 65.2479 116 60.6194 116H8.38056C3.75211 116 0 112.281 0 107.692Z" fill="url(#paint1_linear_23_676)"/>
<path d="M98 44.6152C98 54.8325 89.7173 63.1152 79.5 63.1152C69.2827 63.1152 61 54.8325 61 44.6152C61 34.398 69.2827 26.1152 79.5 26.1152C89.7173 26.1152 98 34.398 98 44.6152Z" fill="url(#paint2_linear_23_676)"/>
<path d="M49 59.5C49 67.5081 42.5081 74 34.5 74C26.4919 74 20 67.5081 20 59.5C20 51.4919 26.4919 45 34.5 45C42.5081 45 49 51.4919 49 59.5Z" fill="url(#paint3_linear_23_676)"/>
<g filter="url(#filter0_b_23_676)">
<path d="M168.983 40.4178C171.88 35.4105 170.174 29.0048 165.171 26.1102L130.47 6.0321C125.468 3.13753 119.063 4.85023 116.166 9.85752L106.171 27.1324C103.274 32.1396 104.98 38.5454 109.983 41.4399L116.775 45.3698C119.204 46.7755 120.967 49.0992 121.666 51.8188L122.592 55.4162C123.008 57.0358 124.671 57.9981 126.283 57.5521L129.863 56.5615C132.57 55.8126 135.462 56.1825 137.892 57.5882L144.684 61.518C149.687 64.4126 156.091 62.6999 158.988 57.6926L168.983 40.4178Z" fill="url(#paint4_linear_23_676)"/>
</g>
<defs>
<filter id="filter0_b_23_676" x="74.7598" y="-25.376" width="125.635" height="118.302" filterUnits="userSpaceOnUse" color-interpolation-filters="sRGB">
<feFlood flood-opacity="0" result="BackgroundImageFix"/>
<feGaussianBlur in="BackgroundImageFix" stdDeviation="15"/>
<feComposite in2="SourceAlpha" operator="in" result="effect1_backgroundBlur_23_676"/>
<feBlend mode="normal" in="SourceGraphic" in2="effect1_backgroundBlur_23_676" result="shape"/>
</filter>
<linearGradient id="paint0_linear_23_676" x1="36" y1="54.4121" x2="59.8749" y2="126.243" gradientUnits="userSpaceOnUse">
<stop stop-color="#3434EA"/>
<stop offset="0.5" stop-color="#A14BC9"/>
<stop offset="1" stop-color="#FF8533"/>
</linearGradient>
<linearGradient id="paint1_linear_23_676" x1="1.21888e-05" y1="67.7106" x2="18.4858" y2="124.073" gradientUnits="userSpaceOnUse">
<stop stop-color="#3434EA"/>
<stop offset="0.5" stop-color="#A14BC9"/>
<stop offset="1" stop-color="#FF8533"/>
</linearGradient>
<linearGradient id="paint2_linear_23_676" x1="64.5174" y1="35.5803" x2="121.82" y2="109.929" gradientUnits="userSpaceOnUse">
<stop stop-color="#3434EA"/>
<stop offset="0.5" stop-color="#A14BC9"/>
<stop offset="1" stop-color="#FF8533"/>
</linearGradient>
<linearGradient id="paint3_linear_23_676" x1="22.7569" y1="52.4186" x2="67.6697" y2="110.692" gradientUnits="userSpaceOnUse">
<stop stop-color="#3434EA"/>
<stop offset="0.5" stop-color="#A14BC9"/>
<stop offset="1" stop-color="#FF8533"/>
</linearGradient>
<linearGradient id="paint4_linear_23_676" x1="120.337" y1="14.2326" x2="132.119" y2="65.6277" gradientUnits="userSpaceOnUse">
<stop stop-color="#3434EA"/>
<stop offset="0.5" stop-color="#A14BC9"/>
<stop offset="1" stop-color="#FF8533"/>
</linearGradient>
</defs>
</svg>
