<?xml version="1.0" encoding="utf-8"?>
<!-- Generator: Adobe Illustrator 27.3.1, SVG Export Plug-In . SVG Version: 6.00 Build 0)  -->
<svg version="1.1" id="레이어_1" xmlns="http://www.w3.org/2000/svg" xmlns:xlink="http://www.w3.org/1999/xlink" x="0px"
	 y="0px" viewBox="0 0 276.6 195" style="enable-background:new 0 0 276.6 195;" xml:space="preserve">
<style type="text/css">
	.st0{display:none;}
	.st1{fill:#FFFFFF;}
	.st2{fill:url(#SVGID_1_);}
	.st3{fill:url(#SVGID_00000011721754730209522280000005611920965799565719_);}
</style>
<rect x="-11.1" y="-51.4" class="st0" width="300" height="300"/>
<g>
	<g>
		<polygon class="st1" points="29.8,112.2 1.8,112.2 1.8,124.6 64.9,124.6 64.9,112.2 29.8,112.2 		"/>
		<polygon class="st1" points="62.9,60.9 62.9,45.9 3.8,45.9 3.8,58.3 48.4,58.3 12.5,97.9 29.3,97.9 		"/>
		<path class="st1" d="M227.8,52.9c-0.6-1.4-1.5-2.6-2.5-3.6c-1-1-2.2-1.8-3.6-2.4c-1.4-0.6-2.9-0.9-4.5-0.9h-45
			c-1.6,0-3.1,0.3-4.5,0.9c-1.4,0.6-2.6,1.4-3.6,2.4c-1,1-1.9,2.2-2.5,3.6c-0.6,1.4-0.9,2.9-0.9,4.6V113c0,1.7,0.3,3.2,0.9,4.6
			c0.6,1.4,1.5,2.6,2.5,3.6c1,1,2.2,1.8,3.6,2.4c1.4,0.6,2.9,0.9,4.5,0.9h16l-6.9-12.4h-5.1c-0.5,0-1-0.2-1.3-0.5
			c-0.3-0.3-0.5-0.8-0.5-1.3V60.1c0-0.5,0.2-1,0.5-1.3c0.3-0.3,0.8-0.5,1.3-0.5h37c0.5,0,1,0.2,1.3,0.5c0.3,0.3,0.5,0.8,0.5,1.3
			v50.3c0,0.5-0.2,1-0.5,1.3c-0.3,0.3-0.8,0.5-1.3,0.5h-20.3l6.8,12.4l7.7,13.6h14.4l-8.1-13.6h3.5c1.6,0,3.1-0.3,4.5-0.9
			c1.4-0.6,2.6-1.4,3.6-2.4c1-1,1.9-2.2,2.5-3.6c0.6-1.4,0.9-2.9,0.9-4.6V57.5C228.7,55.8,228.4,54.3,227.8,52.9z"/>
		<polygon class="st1" points="143.3,45.3 136,45.3 99.1,45.3 90.8,45.3 83.5,45.3 77.2,57.7 84.6,57.7 92.9,57.7 99.4,57.7 
			106.7,57.7 106.7,124.1 120.5,124.1 120.5,57.7 128.8,57.7 129.3,57.7 129.8,57.7 137.1,57.7 145.5,57.7 151.7,45.3 		"/>
		<g>
			<linearGradient id="SVGID_1_" gradientUnits="userSpaceOnUse" x1="115.8713" y1="28.0931" x2="273.1634" y2="28.0931">
				<stop  offset="0" style="stop-color:#FFFFFF"/>
				<stop  offset="1" style="stop-color:#FFFFFF;stop-opacity:0"/>
			</linearGradient>
			<path class="st2" d="M197.2,1.7c35.5,0,65.8,22.8,76.9,54.5h0.1C263,23.5,232,0,195.5,0s-67.5,23.5-78.6,56.2h3.4
				C131.4,24.4,161.7,1.7,197.2,1.7z"/>
		</g>
		<g>
			
				<linearGradient id="SVGID_00000173849825856625661130000003157666912505738416_" gradientUnits="userSpaceOnUse" x1="273.4924" y1="136.0762" x2="116.2003" y2="136.0762">
				<stop  offset="0" style="stop-color:#FFFFFF"/>
				<stop  offset="1" style="stop-color:#FFFFFF;stop-opacity:0"/>
			</linearGradient>
			<path style="fill:url(#SVGID_00000173849825856625661130000003157666912505738416_);" d="M193.9,162.5
				c-35.5,0-65.8-22.8-76.9-54.5h-0.1c11.2,32.7,42.2,56.2,78.6,56.2s67.5-23.5,78.6-56.2h-3.4C259.7,139.7,229.4,162.5,193.9,162.5
				z"/>
		</g>
	</g>
	<g>
		<path class="st1" d="M12.7,192H0v-2.2l9.7-13.1H0.1v-2h12.4v2.2l-9.8,13.1h10V192z"/>
		<path class="st1" d="M26.7,189.9c0,0.6-0.2,1.1-0.6,1.5s-0.9,0.6-1.5,0.6h-6.4c-0.6,0-1.1-0.2-1.5-0.6s-0.6-0.9-0.6-1.5v-7.5
			c0-0.6,0.2-1.1,0.6-1.5s0.9-0.6,1.5-0.6h6.6c0.6,0,1.1,0.2,1.5,0.6s0.6,0.9,0.6,1.5v3.1c0,0.6-0.2,1.1-0.5,1.4
			c-0.3,0.3-0.8,0.5-1.4,0.5h-6.5v2.2c0,0.2,0.1,0.4,0.4,0.4h5.3c0.2,0,0.4-0.1,0.4-0.4v-1.3h2.2V189.9z M24.3,185.5
			c0.2,0,0.4-0.1,0.4-0.4v-2.4c0-0.2-0.1-0.4-0.4-0.4h-5.5c-0.2,0-0.4,0.1-0.4,0.4v2.7H24.3z"/>
		<path class="st1" d="M32.7,192h-2.2v-9.5c0-0.6,0.2-1.1,0.6-1.5s0.9-0.6,1.5-0.6h4.9v2h-4.4c-0.2,0-0.4,0.1-0.4,0.4V192z"/>
		<path class="st1" d="M51.2,189.9c0,0.6-0.2,1.1-0.6,1.5s-0.9,0.6-1.5,0.6h-6.8c-0.6,0-1.1-0.2-1.5-0.6s-0.6-0.9-0.6-1.5v-7.5
			c0-0.6,0.2-1.1,0.6-1.5s0.9-0.6,1.5-0.6h6.8c0.6,0,1.1,0.2,1.5,0.6s0.6,0.9,0.6,1.5V189.9z M48.6,190c0.2,0,0.4-0.1,0.4-0.4v-6.9
			c0-0.2-0.1-0.4-0.4-0.4H43c-0.2,0-0.4,0.1-0.4,0.4v6.9c0,0.2,0.1,0.4,0.4,0.4H48.6z"/>
		<path class="st1" d="M59.7,192h-2.3v-15.3h-5v-2h12.3v2h-5V192z"/>
		<path class="st1" d="M76.6,189.9c0,0.6-0.2,1.1-0.6,1.5s-0.9,0.6-1.5,0.6h-6.8c-0.6,0-1.1-0.2-1.5-0.6s-0.6-0.9-0.6-1.5v-7.5
			c0-0.6,0.2-1.1,0.6-1.5s0.9-0.6,1.5-0.6h6.8c0.6,0,1.1,0.2,1.5,0.6s0.6,0.9,0.6,1.5V189.9z M74,190c0.2,0,0.4-0.1,0.4-0.4v-6.9
			c0-0.2-0.1-0.4-0.4-0.4h-5.6c-0.2,0-0.4,0.1-0.4,0.4v6.9c0,0.2,0.1,0.4,0.4,0.4H74z"/>
		<path class="st1" d="M99.5,195h-2.3l-1.5-3H89c-0.6,0-1.1-0.2-1.5-0.6s-0.6-0.9-0.6-1.5v-13.3c0-0.6,0.2-1.1,0.6-1.5
			s0.9-0.6,1.5-0.6h10.9c0.6,0,1.1,0.2,1.5,0.6s0.6,0.9,0.6,1.5v13.3c0,0.6-0.2,1.1-0.6,1.5s-0.9,0.6-1.5,0.6H98L99.5,195z
			 M99.2,189.9c0.2,0,0.4-0.1,0.4-0.4V177c0-0.2-0.1-0.4-0.4-0.4h-9.6c-0.2,0-0.4,0.1-0.4,0.4v12.6c0,0.2,0.1,0.4,0.4,0.4H99.2z"/>
		<path class="st1" d="M116.5,189.9c0,0.6-0.2,1.1-0.6,1.5c-0.4,0.4-0.9,0.6-1.5,0.6h-6.8c-0.6,0-1.1-0.2-1.5-0.6s-0.6-0.9-0.6-1.5
			v-9.5h2.2v9.2c0,0.2,0.1,0.4,0.4,0.4h5.6c0.2,0,0.4-0.1,0.4-0.4v-9.2h2.2V189.9z"/>
		<path class="st1" d="M130.7,189.9c0,0.6-0.2,1.1-0.6,1.5s-0.9,0.6-1.5,0.6h-6.5c-0.6,0-1.1-0.2-1.5-0.6s-0.6-0.9-0.6-1.5v-3.1
			c0-0.6,0.2-1.1,0.5-1.4c0.3-0.3,0.8-0.5,1.4-0.5h6.4v-2.2c0-0.2-0.1-0.4-0.4-0.4h-5.2c-0.2,0-0.4,0.1-0.4,0.4v1.3h-2.2v-1.6
			c0-0.6,0.2-1.1,0.6-1.5s0.9-0.6,1.5-0.6h6.3c0.6,0,1.1,0.2,1.5,0.6s0.6,0.9,0.6,1.5V189.9z M128.1,190c0.2,0,0.4-0.1,0.4-0.4v-2.8
			h-5.7c-0.2,0-0.4,0.1-0.4,0.4v2.4c0,0.2,0.1,0.4,0.4,0.4H128.1z"/>
		<path class="st1" d="M145.2,192H143v-9.2c0-0.2-0.1-0.4-0.4-0.4h-6v9.6h-2.2v-11.6h8.8c0.6,0,1.1,0.2,1.5,0.6s0.6,0.9,0.6,1.5V192
			z"/>
		<path class="st1" d="M155.8,192h-3c-0.6,0-1.1-0.2-1.5-0.6s-0.6-0.9-0.6-1.5v-7.5h-2.6v-2h2.6v-5.5h2.2v5.5h3.1v2h-3.1v7.2
			c0,0.2,0.1,0.4,0.4,0.4h2.4V192z"/>
		<path class="st1" d="M170.2,189.9c0,0.6-0.2,1.1-0.6,1.5s-0.9,0.6-1.5,0.6h-6.8c-0.6,0-1.1-0.2-1.5-0.6c-0.4-0.4-0.6-0.9-0.6-1.5
			v-9.5h2.2v9.2c0,0.2,0.1,0.4,0.4,0.4h5.6c0.2,0,0.4-0.1,0.4-0.4v-9.2h2.2V189.9z"/>
		<path class="st1" d="M189.8,192h-2.2v-9.2c0-0.2-0.1-0.4-0.4-0.4h-4.1v9.6h-2.2v-9.6h-4.5v9.6h-2.2v-11.6h13.7
			c0.6,0,1.1,0.2,1.5,0.6s0.6,0.9,0.6,1.5V192z"/>
		<path class="st1" d="M214.6,189.9c0,0.6-0.2,1.1-0.6,1.5c-0.4,0.4-0.9,0.6-1.5,0.6h-10.3c-0.6,0-1.1-0.2-1.5-0.6s-0.6-0.9-0.6-1.5
			v-13.3c0-0.6,0.2-1.1,0.6-1.5s0.9-0.6,1.5-0.6h10.3c0.6,0,1.1,0.2,1.5,0.6c0.4,0.4,0.6,0.9,0.6,1.5v4.1h-2.3V177
			c0-0.2-0.1-0.4-0.4-0.4h-9c-0.2,0-0.4,0.1-0.4,0.4v12.6c0,0.2,0.1,0.4,0.4,0.4h9c0.2,0,0.4-0.1,0.4-0.4v-5.1h-5v-2h7.3V189.9z"/>
		<path class="st1" d="M228.7,189.9c0,0.6-0.2,1.1-0.6,1.5s-0.9,0.6-1.5,0.6h-6.5c-0.6,0-1.1-0.2-1.5-0.6s-0.6-0.9-0.6-1.5v-3.1
			c0-0.6,0.2-1.1,0.5-1.4c0.3-0.3,0.8-0.5,1.4-0.5h6.4v-2.2c0-0.2-0.1-0.4-0.4-0.4h-5.2c-0.2,0-0.4,0.1-0.4,0.4v1.3h-2.2v-1.6
			c0-0.6,0.2-1.1,0.6-1.5s0.9-0.6,1.5-0.6h6.3c0.6,0,1.1,0.2,1.5,0.6s0.6,0.9,0.6,1.5V189.9z M226.1,190c0.2,0,0.4-0.1,0.4-0.4v-2.8
			h-5.7c-0.2,0-0.4,0.1-0.4,0.4v2.4c0,0.2,0.1,0.4,0.4,0.4H226.1z"/>
		<path class="st1" d="M248.2,192h-2.2v-9.2c0-0.2-0.1-0.4-0.4-0.4h-4.1v9.6h-2.2v-9.6h-4.5v9.6h-2.2v-11.6h13.7
			c0.6,0,1.1,0.2,1.5,0.6s0.6,0.9,0.6,1.5V192z"/>
		<path class="st1" d="M262.4,189.9c0,0.6-0.2,1.1-0.6,1.5s-0.9,0.6-1.5,0.6h-6.4c-0.6,0-1.1-0.2-1.5-0.6s-0.6-0.9-0.6-1.5v-7.5
			c0-0.6,0.2-1.1,0.6-1.5s0.9-0.6,1.5-0.6h6.6c0.6,0,1.1,0.2,1.5,0.6s0.6,0.9,0.6,1.5v3.1c0,0.6-0.2,1.1-0.5,1.4
			c-0.3,0.3-0.8,0.5-1.4,0.5h-6.5v2.2c0,0.2,0.1,0.4,0.4,0.4h5.3c0.2,0,0.4-0.1,0.4-0.4v-1.3h2.2V189.9z M260,185.5
			c0.2,0,0.4-0.1,0.4-0.4v-2.4c0-0.2-0.1-0.4-0.4-0.4h-5.5c-0.2,0-0.4,0.1-0.4,0.4v2.7H260z"/>
		<path class="st1" d="M276.6,189.9c0,0.6-0.2,1.1-0.6,1.5s-0.9,0.6-1.5,0.6H268c-0.6,0-1.1-0.2-1.5-0.6s-0.6-0.9-0.6-1.5v-1.8h2.2
			v1.5c0,0.2,0.1,0.4,0.4,0.4h5.4c0.2,0,0.4-0.1,0.4-0.4v-2.4c0-0.2-0.1-0.4-0.4-0.4h-6c-0.6,0-1.1-0.2-1.4-0.5
			c-0.3-0.3-0.5-0.8-0.5-1.4v-2.6c0-0.6,0.2-1.1,0.6-1.5s0.9-0.6,1.5-0.6h6.2c0.6,0,1.1,0.2,1.5,0.6s0.6,0.9,0.6,1.5v1.6h-2.2v-1.3
			c0-0.2-0.1-0.4-0.4-0.4h-5.1c-0.2,0-0.4,0.1-0.4,0.4v1.9c0,0.2,0.1,0.4,0.4,0.4h6c0.6,0,1.1,0.2,1.4,0.5c0.3,0.3,0.5,0.8,0.5,1.4
			V189.9z"/>
	</g>
</g>
</svg>
