<?xml version="1.0" standalone="no"?>
<!DOCTYPE svg PUBLIC "-//W3C//DTD SVG 1.1//EN" "http://www.w3.org/Graphics/SVG/1.1/DTD/svg11.dtd" >
<svg xmlns="http://www.w3.org/2000/svg">
<metadata>Generated by IcoMoon</metadata>
<defs>
<font id="nebula" horiz-adv-x="1024">
<font-face units-per-em="1024" ascent="960" descent="-64" />
<missing-glyph horiz-adv-x="1024" />
<glyph unicode="&#x20;" horiz-adv-x="512" d="" />
<glyph unicode="&#xe900;" glyph-name="user-box" d="M512 752c-108.8 0-201.6-89.6-201.6-201.6s89.6-201.6 201.6-201.6 201.6 89.6 201.6 201.6-92.8 201.6-201.6 201.6zM512 444.8c-57.6 0-105.6 48-105.6 105.6s48 105.6 105.6 105.6c57.6 0 105.6-48 105.6-105.6s-48-105.6-105.6-105.6zM873.6 960h-723.2c-83.2 0-150.4-67.2-150.4-150.4v-726.4c0-80 67.2-147.2 150.4-147.2h726.4c83.2 0 150.4 67.2 150.4 150.4v723.2c-3.2 83.2-70.4 150.4-153.6 150.4zM278.4 28.8c16 28.8 41.6 51.2 70.4 70.4 92.8 57.6 230.4 57.6 323.2 0 28.8-19.2 54.4-44.8 70.4-70.4h-464zM931.2 86.4c0-32-25.6-54.4-54.4-54.4h-25.6c-22.4 60.8-67.2 112-124.8 150.4-60.8 38.4-137.6 60.8-211.2 60.8-76.8 0-150.4-22.4-211.2-60.8-57.6-38.4-102.4-89.6-124.8-150.4h-28.8c-32 0-54.4 25.6-54.4 54.4v723.2c0 32 25.6 54.4 54.4 54.4h726.4c32 0 54.4-25.6 54.4-54.4v-723.2z" />
<glyph unicode="&#xe901;" glyph-name="wallet" d="M998.4 649.6c-12.8 12.8-28.8 19.2-44.8 22.4 16 41.6 16 96 16 179.2 0 22.4 0 44.8-19.2 64s-41.6 19.2-64 19.2h-710.4c-19.2 0-32 0-41.6 0-70.4-12.8-121.6-67.2-134.4-134.4 0-9.6 0-22.4 0-41.6v-604.8c0-76.8 0-121.6 35.2-156.8s80-35.2 156.8-35.2h713.6c41.6 0 70.4 0 96 25.6s25.6 54.4 25.6 96v473.6c-3.2 41.6-3.2 70.4-28.8 92.8zM92.8 787.2c3.2 28.8 25.6 51.2 54.4 54.4 3.2 0 12.8 0 28.8 0h704c0-83.2 0-131.2-19.2-150.4s-67.2-19.2-153.6-19.2h-531.2c-16 0-25.6 0-28.8 0-28.8 6.4-51.2 28.8-54.4 57.6 0 3.2 0 12.8 0 28.8s0 25.6 0 28.8zM931.2 259.2h-192c-9.6 0-19.2 0-25.6 0 0 6.4 0 19.2 0 25.6v60.8c0 9.6 0 19.2 0 25.6 6.4 0 19.2 0 25.6 0h192v-112zM931.2 467.2h-192c-41.6 0-70.4 0-96-25.6s-25.6-54.4-25.6-96v-57.6c0-41.6 0-70.4 25.6-96s54.4-25.6 96-25.6h192v-89.6c0-9.6 0-19.2 0-25.6-6.4 0-19.2 0-25.6 0h-713.6c-44.8 0-83.2 0-92.8 9.6s-9.6 48-9.6 92.8v444.8c12.8-6.4 28.8-9.6 41.6-12.8 9.6 0 22.4 0 41.6 0h729.6c9.6 0 19.2 0 25.6 0 0-6.4 0-19.2 0-25.6v-92.8z" />
<glyph unicode="&#xe902;" glyph-name="play" d="M192 947.2c-73.6 38.4-160-12.8-160-96v-806.4c0-83.2 89.6-134.4 160-96l742.4 403.2c76.8 41.6 76.8 150.4 0 192l-742.4 403.2z" />
<glyph unicode="&#xe903;" glyph-name="browser" d="M0 172.8c0-112 0-166.4 35.2-201.6s89.6-35.2 201.6-35.2h550.4c112 0 166.4 0 201.6 35.2s35.2 89.6 35.2 201.6v364.8h-1024v-364.8zM988.8 924.8c-35.2 35.2-89.6 35.2-201.6 35.2h-550.4c-112 0-166.4 0-201.6-35.2s-35.2-89.6-35.2-201.6v-108.8h1024v108.8c0 112 0 166.4-35.2 201.6zM134.4 729.6c-32 0-57.6 25.6-57.6 57.6s25.6 57.6 57.6 57.6 57.6-25.6 57.6-57.6-22.4-57.6-57.6-57.6zM294.4 729.6c-32 0-57.6 25.6-57.6 57.6s25.6 57.6 57.6 57.6 57.6-25.6 57.6-57.6-25.6-57.6-57.6-57.6zM451.2 729.6c-32 0-57.6 25.6-57.6 57.6s25.6 57.6 57.6 57.6 57.6-25.6 57.6-57.6-25.6-57.6-57.6-57.6z" />
<glyph unicode="&#xe904;" glyph-name="twitter" d="M774.4 892.8h153.6l-329.6-377.6 387.2-512h-304l-236.8 310.4-272-310.4h-153.6l352 403.2-371.2 486.4h310.4l214.4-284.8 249.6 284.8zM723.2 92.8h83.2l-540.8 713.6h-89.6l547.2-713.6z" />
<glyph unicode="&#xe905;" glyph-name="check" d="M992.416 775.52c-42.080 42.048-110.304 42.080-152.416-0.032l-426.24-426.336-229.696 229.792c-42.080 42.112-110.304 42.112-152.48 0.032-42.080-42.048-42.080-110.336-0.032-152.448l305.92-306.016c20.224-20.224 47.648-31.584 76.256-31.584 28.576 0 56 11.36 76.224 31.584l502.464 502.592c42.112 42.080 42.112 110.304 0 152.416z" />
<glyph unicode="&#xe906;" glyph-name="fullscreen" d="M1024 844.8c0 64-51.2 115.2-115.2 115.2h-169.6c-32 0-57.6-25.6-57.6-57.6s25.6-57.6 57.6-57.6h169.6v-169.6c0-32 25.6-57.6 57.6-57.6s57.6 25.6 57.6 57.6v169.6zM115.2 960c-64 0-115.2-51.2-115.2-115.2v-169.6c0-32 25.6-57.6 57.6-57.6s57.6 25.6 57.6 57.6v169.6h169.6c32 0 57.6 25.6 57.6 57.6s-25.6 57.6-57.6 57.6h-169.6zM115.2-64c-64 0-115.2 51.2-115.2 115.2v169.6c0 32 25.6 57.6 57.6 57.6s57.6-25.6 57.6-57.6v-169.6h169.6c32 0 57.6-25.6 57.6-57.6s-25.6-57.6-57.6-57.6h-169.6zM908.8-64c64 0 115.2 51.2 115.2 115.2v169.6c0 32-25.6 57.6-57.6 57.6s-57.6-25.6-57.6-57.6v-169.6h-169.6c-32 0-57.6-25.6-57.6-57.6s25.6-57.6 57.6-57.6h169.6z" />
<glyph unicode="&#xe907;" glyph-name="logout" d="M544 902.4c0 32-25.6 57.6-57.6 57.6h-281.6c-96 0-172.8-76.8-172.8-169.6v-681.6c0-96 76.8-172.8 172.8-172.8h256c32 0 57.6 25.6 57.6 57.6s-25.6 57.6-57.6 57.6h-256c-32 0-57.6 25.6-57.6 57.6v681.6c0 32 25.6 57.6 57.6 57.6h284.8c28.8-3.2 54.4 22.4 54.4 54.4zM432 448c0 32 25.6 57.6 57.6 57.6h307.2l-64 64c-22.4 22.4-22.4 57.6 0 80s57.6 22.4 80 0l160-160c22.4-22.4 22.4-57.6 0-80l-160-160c-22.4-22.4-57.6-22.4-80 0s-22.4 57.6 0 80l64 64h-307.2c-32-3.2-57.6 22.4-57.6 54.4z" />
<glyph unicode="&#xe908;" glyph-name="refresh" d="M937.6 409.6c-9.6-96-51.2-188.8-118.4-259.2s-156.8-115.2-256-128c-96-12.8-195.2 6.4-278.4 57.6s-147.2 128-179.2 220.8c-32 92.8-35.2 192-3.2 284.8s96 169.6 176 224 182.4 73.6 278.4 64c96-12.8 188.8-54.4 256-124.8h-134.4c-12.8 0-22.4-3.2-28.8-12.8-3.2-9.6-9.6-19.2-9.6-32s3.2-22.4 12.8-28.8c9.6-9.6 19.2-12.8 28.8-12.8h176c22.4 0 41.6 9.6 57.6 22.4 16 16 22.4 35.2 22.4 57.6v176c0 12.8-3.2 22.4-12.8 28.8-6.4 9.6-16 12.8-28.8 12.8s-22.4-3.2-28.8-12.8c-9.6-9.6-12.8-19.2-12.8-28.8v-89.6c-86.4 76.8-195.2 121.6-310.4 128s-230.4-25.6-323.2-89.6c-96-67.2-163.2-160-198.4-272-32-108.8-28.8-227.2 12.8-336 41.6-105.6 118.4-195.2 220.8-256 99.2-57.6 217.6-80 329.6-64 115.2 16 220.8 70.4 297.6 153.6 80 83.2 128 192 137.6 307.2 0 6.4 0 12.8-3.2 16-3.2 6.4-6.4 9.6-9.6 16-3.2 3.2-9.6 6.4-16 9.6 0 6.4-6.4 6.4-9.6 6.4-9.6 0-19.2-3.2-28.8-9.6s-12.8-16-16-28.8z" />
<glyph unicode="&#xe909;" glyph-name="transfer" d="M777.6-48c-22.4-22.4-57.6-22.4-80 0l-201.6 201.6c-22.4 22.4-22.4 57.6 0 80s57.6 22.4 80 0l102.4-102.4v544c0 32 25.6 57.6 57.6 57.6s57.6-25.6 57.6-57.6v-544l102.4 102.4c22.4 22.4 57.6 22.4 80 0s22.4-57.6 0-80l-198.4-201.6zM124.8 662.4l102.4 105.6v-544c0-32 25.6-57.6 57.6-57.6s57.6 25.6 57.6 57.6v544l102.4-102.4c22.4-22.4 57.6-22.4 80 0s22.4 57.6 0 80l-201.6 201.6c-22.4 22.4-57.6 22.4-80 0l-198.4-204.8c-22.4-22.4-22.4-57.6 0-80s57.6-22.4 80 0z" />
<glyph unicode="&#xe90a;" glyph-name="exclamation-mark" d="M419.584 159.328h184.8v-223.328h-184.8v223.328zM419.584 960h184.8v-593.76h-184.8v593.76z" />
<glyph unicode="&#xe90b;" glyph-name="direction-left" d="M1024 473.6h-921.6l185.6 185.6-38.4 38.4-249.6-249.6 249.6-249.6 38.4 38.4-185.6 185.6h921.6z" />
<glyph unicode="&#xe90c;" glyph-name="direction-down" d="M486.4 960v-921.6l-185.6 185.6-38.4-38.4 249.6-249.6 249.6 249.6-38.4 38.4-185.6-185.6v921.6z" />
<glyph unicode="&#xe90d;" glyph-name="direction-right" d="M0 422.4h921.6l-185.6-185.6 38.4-38.4 249.6 249.6-249.6 249.6-38.4-38.4 185.6-185.6h-921.6z" />
<glyph unicode="&#xe90e;" glyph-name="direction-up" d="M537.6-64v921.6l185.6-185.6 38.4 38.4-249.6 249.6-249.6-249.6 38.4-38.4 185.6 185.6v-921.6z" />
<glyph unicode="&#xe90f;" glyph-name="pause" d="M640 960v-1024h256v1024h-256zM128 960v-1024h256v1024h-256z" />
<glyph unicode="&#xe910;" glyph-name="play-type2" d="M64 448v486.4c0 19.2 22.4 32 38.4 22.4l838.4-486.4c16-9.6 16-35.2 0-44.8l-419.2-243.2-416-243.2c-19.2-9.6-41.6 3.2-41.6 22.4v486.4z" />
<glyph unicode="&#xe911;" glyph-name="change" d="M44.8 659.2c-12.8-25.6 0-57.6 25.6-67.2 25.6-12.8 57.6 0 67.2 25.6 80 179.2 281.6 278.4 480 224 134.4-35.2 233.6-134.4 278.4-256l-54.4 12.8c-60.8 12.8-96-67.2-44.8-102.4l137.6-92.8c35.2-25.6 89.6 0 86.4 48 0 22.4-3.2 44.8-6.4 67.2-22.4 198.4-166.4 368-371.2 425.6-243.2 64-496-60.8-598.4-284.8zM979.2 236.8c12.8 25.6 0 57.6-25.6 67.2-25.6 12.8-57.6 0-67.2-25.6-80-179.2-281.6-278.4-480-224-134.4 35.2-233.6 134.4-278.4 256l54.4-12.8c60.8-12.8 96 67.2 44.8 102.4l-137.6 92.8c-35.2 25.6-89.6 0-86.4-48 0-22.4 3.2-44.8 6.4-67.2 22.4-198.4 166.4-368 371.2-425.6 243.2-64 496 60.8 598.4 284.8z" />
<glyph unicode="&#xe912;" glyph-name="transfer2" d="M1008 713.6c22.4-22.4 22.4-57.6 0-80l-201.6-201.6c-22.4-22.4-57.6-22.4-80 0s-22.4 57.6 0 80l102.4 102.4h-540.8c-32 0-57.6 25.6-57.6 57.6s25.6 57.6 57.6 57.6h540.8l-102.4 102.4c-22.4 22.4-22.4 57.6 0 80s57.6 22.4 80 0l201.6-198.4zM300.8 64l-105.6 102.4h540.8c32 0 57.6 25.6 57.6 57.6s-25.6 57.6-57.6 57.6h-540.8l102.4 102.4c22.4 22.4 22.4 57.6 0 80s-57.6 22.4-80 0l-201.6-201.6c-22.4-22.4-22.4-57.6 0-80l204.8-198.4c22.4-22.4 57.6-22.4 80 0s22.4 57.6 0 80v0z" />
<glyph unicode="&#xe913;" glyph-name="change2" d="M726.4 860.8c3.2 35.2 35.2 57.6 64 41.6 19.2-9.6 44.8-25.6 76.8-44.8 32-22.4 57.6-41.6 73.6-54.4 22.4-19.2 22.4-57.6-3.2-76.8-16-12.8-41.6-32-73.6-54.4-32-19.2-57.6-35.2-76.8-44.8-28.8-16-57.6 3.2-60.8 35.2 0 6.4 0 16-3.2 28.8h-505.6c-41.6 0-73.6-32-73.6-73.6v-195.2c0-41.6-32-73.6-73.6-73.6s-70.4 35.2-70.4 76.8v195.2c0 121.6 99.2 217.6 217.6 217.6h505.6c3.2 6.4 3.2 16 3.2 22.4zM950.4 544c-41.6 0-73.6-32-73.6-73.6v-195.2c0-41.6-32-73.6-73.6-73.6h-502.4c0 9.6 0 19.2-3.2 28.8-3.2 32-32 51.2-60.8 35.2-19.2-6.4-44.8-22.4-76.8-41.6s-57.6-38.4-73.6-51.2c-25.6-19.2-25.6-57.6-3.2-76.8 16-12.8 41.6-32 73.6-54.4 32-19.2 57.6-35.2 76.8-44.8 28.8-16 60.8 6.4 64 41.6 0 6.4 0 12.8 0 22.4h505.6c121.6 0 217.6 99.2 217.6 217.6v195.2c3.2 38.4-28.8 70.4-70.4 70.4z" />
<glyph unicode="&#xe918;" glyph-name="arrow-thin-right" d="M252.8 947.2c-6.4-6.4-9.6-19.2-9.6-28.8s3.2-22.4 12.8-28.8l428.8-441.6-432-441.6c-6.4-6.4-12.8-19.2-12.8-28.8s3.2-22.4 12.8-28.8c3.2-3.2 9.6-6.4 12.8-9.6 6.4-3.2 12.8-3.2 16-3.2 6.4 0 9.6 0 16 3.2s9.6 6.4 12.8 9.6l457.6 467.2c9.6 9.6 12.8 19.2 12.8 32s-3.2 22.4-12.8 32l-457.6 467.2c-3.2 3.2-6.4 6.4-12.8 9.6-3.2 3.2-9.6 3.2-16 3.2-3.2 0-9.6 0-12.8-3.2-6.4-3.2-9.6-6.4-16-9.6v0z" />
<glyph unicode="&#xe919;" glyph-name="discord" d="M243.2 172.8v0c3.2-3.2 6.4-3.2 9.6-6.4v0c0 0 3.2-3.2 3.2-3.2v0c16-9.6 32-19.2 48-25.6v0c9.6-6.4 22.4-9.6 32-12.8 0-6.4-6.4-9.6-9.6-12.8-6.4-12.8-16-22.4-25.6-32-3.2-3.2-3.2-3.2-9.6-3.2-51.2 3.2-102.4 16-153.6 38.4s-99.2 54.4-137.6 96c0 6.4 0 9.6 0 12.8 3.2 51.2 9.6 102.4 19.2 153.6 12.8 80 35.2 156.8 64 233.6 12.8 32 28.8 67.2 44.8 99.2 6.4 12.8 16 22.4 25.6 28.8 60.8 41.6 128 67.2 201.6 80 3.2 0 9.6 3.2 12.8 0 3.2-6.4 6.4-12.8 9.6-19.2 0-3.2-3.2-3.2-3.2-3.2-12.8-3.2-25.6-6.4-38.4-12.8-25.6-9.6-51.2-19.2-76.8-35.2v0c-3.2 0-9.6-3.2-16-6.4v0c-9.6-9.6-22.4-16-32-22.4v0c-9.6-6.4-16-12.8-22.4-19.2v0c-9.6-6.4-16-9.6-19.2-16 6.4 0 6.4 3.2 12.8 3.2 41.6 22.4 83.2 41.6 128 54.4 35.2 12.8 67.2 19.2 102.4 22.4 22.4 3.2 41.6 3.2 64 6.4 3.2 0 3.2 0 6.4 0s6.4 0 9.6 0c35.2 0 67.2 0 99.2-3.2 25.6-3.2 48-6.4 73.6-12.8 0 0 3.2 0 3.2 0 28.8-6.4 54.4-16 83.2-25.6 0 0 3.2 0 3.2 0 12.8-3.2 22.4-9.6 35.2-16 16-6.4 25.6-12.8 41.6-19.2v0c6.4-6.4 16-9.6 25.6-12.8-3.2 6.4-12.8 12.8-19.2 16v0c-6.4 6.4-16 12.8-25.6 19.2-22.4 16-48 32-73.6 41.6 0 0-3.2 0-3.2 0-16 6.4-28.8 12.8-48 16v0c0 0-3.2 0-3.2 0-12.8 3.2-25.6 6.4-38.4 9.6-3.2 0-6.4 0-6.4 3.2 3.2 6.4 6.4 12.8 9.6 19.2 3.2 3.2 6.4 3.2 12.8 0 35.2-3.2 67.2-12.8 102.4-25.6 19.2-6.4 38.4-19.2 60.8-25.6v0c19.2-12.8 38.4-22.4 54.4-35.2v0c0 0 0-3.2 3.2-3.2v0c9.6-9.6 12.8-22.4 22.4-32v0c6.4-16 16-32 22.4-48 9.6-19.2 16-41.6 25.6-60.8 0 0 0-3.2 0-3.2 6.4-19.2 12.8-35.2 19.2-54.4 6.4-22.4 12.8-44.8 19.2-67.2 0 0 0-3.2 0-3.2 6.4-22.4 9.6-48 16-70.4 0 0 0-3.2 0-3.2 3.2-16 3.2-32 6.4-48 3.2-35.2 9.6-70.4 12.8-108.8 0-6.4 3.2-12.8-3.2-19.2v0c-3.2-3.2-9.6-9.6-12.8-12.8v0c-3.2-3.2-6.4-3.2-6.4-6.4v0c-3.2 0-3.2-3.2-3.2-3.2v0c-3.2-3.2-6.4-6.4-12.8-9.6v0c-3.2-3.2-6.4-3.2-9.6-6.4v0c-3.2-3.2-6.4-6.4-12.8-9.6v0c-6.4-3.2-12.8-6.4-16-12.8v0c-16-6.4-28.8-16-44.8-25.6v0c0 0 0 0-3.2 0v0c-28.8-12.8-60.8-25.6-89.6-32-25.6-6.4-51.2-9.6-73.6-12.8 0 0-3.2 0-3.2 0-6.4 0-9.6 0-12.8 6.4 0 3.2-3.2 3.2-6.4 6.4v0c0 0 0 3.2-3.2 3.2v0c-3.2 3.2-6.4 9.6-9.6 12.8v0c-3.2 6.4-6.4 9.6-12.8 16v0c-3.2 9.6-3.2 9.6 3.2 12.8 16 6.4 28.8 12.8 44.8 19.2v0c3.2 0 6.4 3.2 9.6 3.2v0c9.6 3.2 16 6.4 25.6 12.8 0 0 0 0 0 0 16 6.4 28.8 16 41.6 28.8v0c3.2 0 3.2 0 3.2 3.2v0c9.6 6.4 19.2 16 28.8 25.6v0c0 0 3.2 0 3.2 3.2v0c0 0 3.2 0 3.2 3.2v0c3.2 0 3.2 3.2 6.4 6.4v0c3.2 0 3.2 3.2 3.2 3.2v0c6.4 6.4 12.8 12.8 16 16 0 0 0 0 0 3.2-9.6-6.4-19.2-12.8-25.6-19.2v0c-6.4-3.2-16-9.6-22.4-12.8v0c-3.2 0-6.4-3.2-6.4-3.2v0c-22.4-12.8-44.8-22.4-70.4-32-19.2-6.4-38.4-12.8-57.6-19.2 0 0-3.2 0-3.2 0-6.4-3.2-16-3.2-22.4-6.4 0 0-3.2 0-3.2 0-3.2 0-6.4 0-9.6 0-35.2-6.4-70.4-12.8-105.6-12.8-48-3.2-92.8 0-140.8 6.4-41.6 6.4-80 16-118.4 28.8-19.2 6.4-38.4 16-57.6 25.6 0 0-3.2 0-3.2 3.2v0 0c-25.6 16-51.2 28.8-73.6 44.8 0 0 6.4-9.6 12.8-16v0c6.4-6.4 12.8-12.8 19.2-16v0c3.2-3.2 6.4-6.4 9.6-6.4v0c9.6-9.6 19.2-16 32-22.4v0c-3.2-12.8 3.2-19.2 9.6-22.4v0zM438.4 396.8c0 28.8-6.4 51.2-22.4 70.4-28.8 35.2-76.8 38.4-108.8 6.4-38.4-38.4-38.4-105.6 0-144 28.8-28.8 73.6-25.6 105.6 3.2 19.2 19.2 25.6 41.6 25.6 64v0zM739.2 400c0 22.4-6.4 41.6-16 57.6-25.6 41.6-80 48-112 16-38.4-35.2-41.6-96-6.4-137.6 28.8-35.2 80-38.4 112-3.2 12.8 19.2 22.4 41.6 22.4 67.2v0z" />
<glyph unicode="&#xe91a;" glyph-name="arrow-thin-top" d="M12.8 188.8c6.4-6.4 19.2-12.8 28.8-12.8s22.4 3.2 28.8 12.8l441.6 432 441.6-428.8c6.4-6.4 19.2-12.8 28.8-12.8s22.4 3.2 28.8 12.8c3.2 3.2 6.4 9.6 9.6 12.8 3.2 6.4 3.2 9.6 3.2 16s0 9.6-3.2 16c-3.2 6.4-6.4 9.6-9.6 12.8l-467.2 454.4c-9.6 9.6-19.2 12.8-32 12.8s-22.4-3.2-32-12.8l-467.2-457.6c-3.2-3.2-6.4-9.6-9.6-12.8s-3.2-9.6-3.2-16c0-6.4 0-9.6 3.2-16 3.2-3.2 6.4-6.4 9.6-12.8v0z" />
<glyph unicode="&#xe91b;" glyph-name="youtube" d="M732.8 816h-441.6c-160 0-291.2-131.2-291.2-294.4v-147.2c0-163.2 131.2-291.2 291.2-291.2h438.4c163.2 0 291.2 131.2 291.2 291.2v147.2c3.2 163.2-128 294.4-288 294.4v0zM544 364.8l-137.6-83.2v332.8l278.4-166.4-140.8-83.2z" />
<glyph unicode="&#xe91c;" glyph-name="arrow-thin-left" d="M771.2-51.2c6.4 6.4 12.8 19.2 12.8 28.8s-3.2 22.4-12.8 28.8l-432 441.6 432 441.6c6.4 6.4 12.8 19.2 12.8 28.8s-3.2 22.4-12.8 28.8c-3.2 3.2-9.6 6.4-12.8 9.6-6.4 3.2-12.8 3.2-16 3.2-6.4 0-9.6 0-16-3.2s-9.6-6.4-12.8-9.6l-457.6-467.2c-9.6-9.6-12.8-19.2-12.8-32s3.2-22.4 12.8-32l457.6-470.4c3.2-3.2 9.6-6.4 12.8-9.6 3.2 0 9.6 0 16 0s9.6 0 16 3.2c3.2 3.2 6.4 6.4 12.8 9.6v0z" />
<glyph unicode="&#xe91d;" glyph-name="arrow-thin-bottom" d="M1011.2 707.2c-6.4 6.4-19.2 12.8-28.8 12.8s-22.4-3.2-28.8-12.8l-441.6-432-441.6 432c-6.4 6.4-19.2 9.6-28.8 9.6s-22.4-3.2-28.8-9.6c-3.2-6.4-6.4-9.6-9.6-16-3.2-3.2-3.2-9.6-3.2-12.8 0-6.4 0-12.8 3.2-16 3.2-6.4 6.4-9.6 9.6-12.8l467.2-457.6c9.6-9.6 19.2-12.8 32-12.8s22.4 3.2 32 12.8l467.2 457.6c3.2 3.2 6.4 9.6 9.6 12.8s3.2 9.6 3.2 16c0 6.4 0 9.6-3.2 16-3.2 3.2-6.4 6.4-9.6 12.8v0z" />
<glyph unicode="&#xe91e;" glyph-name="play-store" d="M124.8-64c-9.6 0-19.2 0-28.8 6.4l457.6 457.6 150.4-150.4-524.8-297.6c-16-9.6-35.2-16-54.4-16zM57.6-25.6c-9.6 16-12.8 35.2-12.8 54.4v838.4c0 12.8 3.2 25.6 6.4 38.4l467.2-470.4-460.8-460.8zM752 272l-163.2 163.2 179.2 179.2 160-89.6c32-12.8 51.2-41.6 54.4-76.8 0-16-6.4-32-16-44.8s-22.4-25.6-38.4-32l-176-99.2zM553.6 470.4l-473.6 473.6c12.8 9.6 28.8 16 44.8 16 19.2 0 38.4-6.4 54.4-16l544-307.2-169.6-166.4z" />
<glyph unicode="&#xe927;" glyph-name="pc" d="M915.2 940.8h-806.4c-28.8 0-57.6-12.8-76.8-32s-32-48-32-73.6v-387.2h1024v387.2c0 28.8-12.8 54.4-32 73.6s-48 32-76.8 32zM0 284.8c0-28.8 12.8-57.6 32-76.8s48-32 76.8-32h243.2l-48-147.2h-83.2c-9.6 0-19.2-3.2-25.6-9.6s-9.6-16-9.6-25.6c0-9.6 3.2-19.2 9.6-25.6s16-9.6 25.6-9.6h585.6c9.6 0 19.2 3.2 25.6 9.6s9.6 16 9.6 25.6c0 9.6-3.2 19.2-9.6 25.6s-16 9.6-25.6 9.6h-83.2l-51.2 147.2h243.2c28.8 0 57.6 12.8 76.8 32s32 48 32 76.8v108.8h-1024v-108.8zM486.4 348.8c3.2 0 3.2 3.2 6.4 3.2s3.2 3.2 6.4 3.2l6.4 3.2c6.4 0 16 0 22.4-3.2 3.2-3.2 9.6-3.2 12.8-6.4 0-3.2 3.2-3.2 3.2-6.4s3.2-3.2 3.2-6.4c0-3.2 3.2-3.2 3.2-6.4 0-6.4 0-9.6 0-16 0-3.2 0-3.2-3.2-6.4 0-3.2-3.2-3.2-3.2-6.4s-3.2-3.2-3.2-6.4-6.4-6.4-12.8-6.4c-3.2-3.2-9.6-3.2-12.8-3.2h-6.4l-9.6 3.2c-3.2 0-3.2 3.2-6.4 3.2l-6.4 3.2c-3.2 3.2-6.4 6.4-9.6 12.8-3.2 3.2-3.2 9.6-3.2 12.8 0 6.4 0 9.6 3.2 12.8 3.2 6.4 6.4 12.8 9.6 16v0z" />
<glyph unicode="&#xe928;" glyph-name="ios" d="M793.6 416c0 80 41.6 153.6 112 195.2-41.6 60.8-112 99.2-188.8 102.4-80 9.6-156.8-48-195.2-48-41.6 0-102.4 48-169.6 44.8-89.6-3.2-169.6-51.2-211.2-128-96-156.8-25.6-390.4 60.8-518.4 44.8-64 96-131.2 163.2-128 64 3.2 89.6 41.6 169.6 41.6s102.4-41.6 169.6-41.6c70.4 0 115.2 64 156.8 124.8 32 44.8 54.4 92.8 70.4 147.2-83.2 35.2-137.6 118.4-137.6 208v0zM662.4 796.8c38.4 44.8 57.6 105.6 51.2 163.2-57.6-6.4-112-35.2-150.4-76.8-38.4-44.8-57.6-99.2-54.4-156.8 60.8-3.2 118.4 22.4 153.6 70.4v0z" />
<glyph unicode="&#xe929;" glyph-name="arrow-diagonal" d="M1024 905.6c0 28.8-25.6 54.4-54.4 54.4h-492.8c-28.8 0-54.4-25.6-54.4-54.4s25.6-54.4 54.4-54.4h438.4v-438.4c0-28.8 25.6-54.4 54.4-54.4s54.4 25.6 54.4 54.4v492.8zM76.8-64l931.2 931.2-76.8 76.8-931.2-931.2 76.8-76.8z" />
<glyph unicode="&#xe92a;" glyph-name="mobile" d="M736-64c16 0 32 6.4 44.8 19.2s19.2 28.8 19.2 44.8v896c0 16-6.4 32-19.2 44.8s-28.8 19.2-44.8 19.2h-448c-16 0-32-6.4-44.8-19.2s-19.2-28.8-19.2-44.8v-896c0-16 6.4-32 19.2-44.8s28.8-19.2 44.8-19.2h448zM480 35.2c0 6.4 0 9.6 3.2 12.8s3.2 9.6 6.4 12.8c3.2 3.2 6.4 6.4 12.8 9.6 3.2 3.2 9.6 3.2 12.8 3.2 6.4 0 9.6 0 12.8-3.2s9.6-3.2 12.8-9.6 6.4-6.4 6.4-12.8c3.2-3.2 3.2-9.6 3.2-12.8 0-9.6-3.2-19.2-9.6-25.6s-16-9.6-25.6-9.6c-9.6 0-19.2 3.2-25.6 9.6-6.4 9.6-9.6 16-9.6 25.6zM640 896c9.6 0 16-3.2 22.4-9.6s9.6-12.8 9.6-22.4-3.2-16-9.6-22.4c-6.4-6.4-12.8-9.6-22.4-9.6h-64c-9.6 0-16 3.2-22.4 9.6s-9.6 12.8-9.6 22.4 3.2 16 9.6 22.4c6.4 6.4 12.8 9.6 22.4 9.6h64zM480 864c0-9.6-3.2-16-9.6-22.4s-12.8-9.6-22.4-9.6-16 3.2-22.4 9.6c-6.4 6.4-9.6 12.8-9.6 22.4s3.2 16 9.6 22.4c6.4 6.4 12.8 9.6 22.4 9.6s16-3.2 22.4-9.6c6.4-6.4 9.6-12.8 9.6-22.4zM288 768h448v-640h-448v640z" />
<glyph unicode="&#xe933;" glyph-name="filter" d="M976 697.6h-80c-25.6 99.2-131.2 160-230.4 134.4-64-16-115.2-67.2-134.4-134.4h-483.2c-25.6 0-48-22.4-48-48s22.4-48 48-48h486.4c25.6-99.2 131.2-160 230.4-134.4 64 16 115.2 67.2 134.4 134.4h80c25.6 0 48 22.4 48 48-3.2 25.6-25.6 48-51.2 48zM713.6 556.8c-51.2 0-92.8 41.6-92.8 92.8s41.6 92.8 92.8 92.8c51.2 0 92.8-41.6 92.8-92.8s-41.6-92.8-92.8-92.8zM976 300.8h-486.4c-28.8 99.2-134.4 156.8-233.6 128-60.8-19.2-108.8-67.2-128-128h-80c-25.6 0-48-22.4-48-48s22.4-48 48-48h76.8c25.6-102.4 124.8-163.2 227.2-137.6 67.2 16 121.6 70.4 137.6 137.6h483.2c25.6 0 48 22.4 48 48 3.2 25.6-19.2 48-44.8 48v0zM310.4 156.8c-51.2 0-92.8 41.6-92.8 92.8s41.6 92.8 92.8 92.8 92.8-41.6 92.8-92.8c-3.2-54.4-44.8-92.8-92.8-92.8z" />
<glyph unicode="&#xe942;" glyph-name="minus" d="M908.8 332.8h-793.6c-64 0-115.2 51.2-115.2 115.2s51.2 115.2 115.2 115.2h793.6c64 0 115.2-51.2 115.2-115.2s-51.2-115.2-115.2-115.2z" />
<glyph unicode="&#xe943;" glyph-name="globe" d="M310.4 195.2c64 12.8 131.2 22.4 201.6 22.4s137.6-6.4 201.6-22.4c16 70.4 25.6 153.6 25.6 236.8h-457.6c3.2-83.2 12.8-163.2 28.8-236.8v0zM710.4 700.8c-64-12.8-131.2-22.4-201.6-22.4s-137.6 6.4-201.6 22.4c-16-73.6-25.6-153.6-25.6-236.8h457.6c-3.2 83.2-12.8 166.4-28.8 236.8zM416 937.6c-41.6-44.8-73.6-118.4-96-204.8 60.8-12.8 128-19.2 195.2-19.2s134.4 6.4 195.2 19.2c-22.4 86.4-57.6 160-96 204.8-6.4 3.2-6.4 9.6-6.4 12.8-35.2 6.4-67.2 9.6-96 9.6s-64-3.2-92.8-9.6c0-3.2 0-6.4-3.2-12.8zM771.2 432c0-86.4-9.6-169.6-25.6-243.2 60.8-16 112-38.4 156.8-64 0 0 3.2 0 3.2-3.2 70.4 83.2 112 192 118.4 310.4h-252.8zM736 742.4c54.4 16 105.6 35.2 147.2 60.8-64 67.2-144 115.2-233.6 140.8 32-51.2 64-121.6 86.4-201.6v0zM902.4 774.4c-44.8-28.8-99.2-48-160-64 16-73.6 25.6-156.8 28.8-246.4h249.6c-3.2 118.4-48 227.2-118.4 310.4v0zM284.8 156.8c-54.4-16-105.6-35.2-147.2-60.8 64-67.2 144-118.4 236.8-144-35.2 54.4-67.2 124.8-89.6 204.8zM604.8-41.6c41.6 48 73.6 121.6 99.2 208-60.8 12.8-128 22.4-195.2 22.4s-134.4-6.4-195.2-22.4c22.4-89.6 57.6-163.2 99.2-208 3.2-3.2 3.2-9.6 3.2-12.8 32-6.4 64-9.6 96-9.6s64 3.2 92.8 9.6c-3.2 3.2-3.2 6.4 0 12.8zM736 156.8c-22.4-83.2-51.2-153.6-89.6-201.6 92.8 25.6 172.8 76.8 236.8 144-41.6 22.4-92.8 44.8-147.2 57.6v0zM249.6 432h-249.6c3.2-118.4 48-224 118.4-310.4 0 0 0 0 3.2 3.2 44.8 28.8 99.2 48 156.8 64-16 73.6-25.6 156.8-28.8 243.2v0zM118.4 774.4v0c-70.4-83.2-115.2-192-118.4-310.4h249.6c0 86.4 9.6 169.6 28.8 246.4-60.8 16-115.2 38.4-160 64zM284.8 742.4c22.4 80 51.2 150.4 89.6 201.6-89.6-28.8-169.6-76.8-233.6-144 41.6-25.6 89.6-44.8 144-57.6z" />
<glyph unicode="&#xe944;" glyph-name="search" d="M1024 6.4l-268.8 268.8c57.6 73.6 92.8 163.2 92.8 265.6 0 227.2-188.8 419.2-422.4 419.2s-425.6-192-425.6-425.6 192-425.6 425.6-425.6c99.2 0 192 35.2 265.6 92.8l268.8-265.6 64 70.4zM425.6 208c-182.4 0-332.8 147.2-332.8 329.6s147.2 326.4 329.6 326.4 329.6-147.2 329.6-329.6c3.2-179.2-144-326.4-326.4-326.4z" />
<glyph unicode="&#xe945;" glyph-name="plus" d="M908.8 563.2h-281.6v281.6c0 64-51.2 115.2-115.2 115.2s-115.2-51.2-115.2-115.2v-281.6h-281.6c-64 0-115.2-51.2-115.2-115.2s51.2-115.2 115.2-115.2h281.6v-281.6c0-64 51.2-115.2 115.2-115.2s115.2 51.2 115.2 115.2v281.6h281.6c64 0 115.2 51.2 115.2 115.2s-51.2 115.2-115.2 115.2v0z" />
<glyph unicode="&#xe947;" glyph-name="facebook1" d="M676.269 779.361c-44.031 0-79.030-34.999-79.030-79.030v-133.222h176.123l-28.225-187.413h-147.899v-443.696h-198.703v440.309h-162.576v188.542h162.576v165.963c0 126.448 102.739 229.186 229.186 229.186h159.189v-180.639h-110.642z" />
<glyph unicode="&#xe948;" glyph-name="instagram" d="M512.564 184.379c-144.512 0-263.056 118.545-263.056 263.056s118.545 263.056 263.056 263.056c144.512 0 263.056-118.545 263.056-263.056s-118.545-263.056-263.056-263.056zM512.564 623.559c-97.094 0-174.994-79.030-174.994-174.994 0-97.094 79.030-174.994 174.994-174.994 97.094 0 174.994 79.030 174.994 174.994s-79.030 174.994-174.994 174.994zM756.428-64h-488.856c-147.899 0-267.572 119.674-267.572 267.572v488.856c0 147.899 119.674 267.572 267.572 267.572h488.856c147.899 0 267.572-119.674 267.572-267.572v-488.856c0-147.899-119.674-267.572-267.572-267.572zM267.572 871.938c-99.352 0-179.51-80.159-179.51-179.51v-488.856c0-99.352 80.159-179.51 179.51-179.51h488.856c99.352-1.129 180.639 80.159 180.639 179.51v488.856c0 99.352-81.288 179.51-180.639 179.51h-488.856zM782.395 783.877c-33.87 0-60.966-27.096-60.966-60.966s27.096-60.966 60.966-60.966c33.87 0 60.966 27.096 60.966 60.966s-27.096 60.966-60.966 60.966z" />
<glyph unicode="&#xe949;" glyph-name="telegram" d="M975.453 887.744l-952.873-368.053c-31.612-12.419-30.483-56.45 2.258-67.74l240.476-79.030 104.997-324.022c0 0 0 0 0 0s0 0 0 0 0-1.129 0-1.129c3.387-5.645 11.29-7.903 16.935-2.258l163.705 154.673 255.153-187.413c21.451-15.806 50.805-3.387 56.45 21.451l160.318 814.007c5.645 27.096-21.451 49.676-47.418 39.515zM394.020 317.601l-16.935-205.477-81.288 250.637 477.566 303.7-379.343-348.86z" />
<glyph unicode="&#xe954;" glyph-name="medium" d="M291.281 156.154c161.447 0 292.41 130.964 291.281 291.281 0 160.318-129.835 290.152-290.152 291.281s-292.41-128.706-292.41-290.152c0-161.447 129.835-292.41 291.281-292.41zM880.617 446.307c0 62.095-7.903 120.803-30.483 176.123-12.419 31.612-28.225 59.837-55.321 81.288-29.354 22.58-62.095 22.58-91.449 1.129-30.483-22.58-47.418-55.321-59.837-89.191-34.999-98.223-36.128-198.703-9.032-299.184 11.29-41.773 28.225-82.417 60.966-112.9 33.87-31.612 75.643-32.741 107.255 1.129 16.935 18.064 31.612 39.515 41.773 60.966 28.225 56.45 36.128 119.674 36.128 180.639zM916.745 465.499c5.645-64.353 7.903-112.9 13.548-161.447 2.258-23.709 9.032-47.418 16.935-68.869 4.516-11.29 15.806-20.322 24.838-30.483 7.903 10.161 16.935 20.322 24.838 31.612 4.516 6.774 5.645 16.935 7.903 24.838 25.967 121.932 24.838 244.992 2.258 368.053-2.258 13.548-6.774 27.096-12.419 39.515-4.516 10.161-14.677 16.935-22.58 25.967-7.903-9.032-16.935-16.935-23.709-25.967-4.516-6.774-6.774-14.677-7.903-22.58-7.903-65.482-16.935-130.964-23.709-180.639z" />
<glyph unicode="&#xe956;" glyph-name="close" d="M1024 924.8l-35.2 35.2-476.8-476.8-476.8 476.8-35.2-35.2 476.8-476.8-476.8-476.8 35.2-35.2 476.8 476.8 476.8-476.8 35.2 35.2-476.8 476.8z" />
</font>
</defs>
</svg>
